<svg width="15" height="15" viewBox="0 0 15 15" fill="none" xmlns="http://www.w3.org/2000/svg">
<g clip-path="url(#clip0)">
<path d="M0.381567 12.2222L7.08039 3.9655C6.98494 3.80287 7.00518 3.60535 7.11762 3.4666L7.66445 2.79213C6.66419 2.04673 5.97835 1.84968 4.47583 1.7958C4.03805 1.78013 3.89122 1.19964 4.26906 0.977776C6.55925 -0.367068 8.70496 -0.325291 10.4742 1.09865L12.3411 2.60132C12.5308 2.75393 12.5602 3.03198 12.4065 3.22086C12.2563 3.40561 12.2803 3.67927 12.4734 3.8346C12.6624 3.98677 12.9403 3.95733 13.0927 3.76892C13.245 3.58063 13.521 3.55113 13.7097 3.7028L14.5092 4.34545C15.0768 4.80219 15.1659 5.63065 14.7066 6.19719L13.6009 7.56096C13.1438 8.12487 12.312 8.21246 11.7471 7.7578L10.9477 7.11529C10.7582 6.96292 10.7284 6.68516 10.8817 6.49613C11.0341 6.30817 11.0044 6.03409 10.816 5.88242C10.6267 5.73008 10.3485 5.75946 10.1957 5.9479C10.0757 6.09591 9.87938 6.14507 9.70922 6.08554L3.03012 14.3649C2.43783 15.0992 1.36442 15.2113 0.633227 14.6201C-0.0997515 14.0274 -0.212456 12.9542 0.381567 12.2222ZM9.00844 5.55447L7.74677 4.53902L6.7897 5.71865L8.05538 6.73584L9.00844 5.55447ZM11.8505 6.08322C11.8716 6.28124 11.8481 6.47718 11.7835 6.65958L12.2979 7.07305C12.4872 7.22536 12.7654 7.19598 12.9182 7.00754L14.0239 5.64377C14.1761 5.45601 14.1467 5.18182 13.9584 5.03024L13.442 4.61522C12.9796 4.89899 12.3683 4.87821 11.9223 4.51921C11.4672 4.15291 11.3264 3.55915 11.5049 3.05639L9.92315 1.78332C8.8048 0.883235 7.53126 0.653782 6.12384 1.0952C7.00547 1.29078 7.68352 1.66974 8.5638 2.37822C8.75324 2.53066 8.78277 2.8083 8.62963 2.99724L8.07806 3.67754L9.84709 5.10134C10.6753 4.59406 11.7485 5.12378 11.8505 6.08322ZM1.18583 13.9367C1.53976 14.2228 2.05899 14.169 2.34607 13.8131L7.50361 7.41987L6.23602 6.40112L1.06404 12.7759C0.776488 13.1302 0.830952 13.6498 1.18583 13.9367Z" fill="#705FF5"/>
</g>
<defs>
<clipPath id="clip0">
<rect width="15" height="15" fill="white" transform="matrix(-1 0 0 1 15 0)"/>
</clipPath>
</defs>
</svg>
