<svg width="15" height="15" viewBox="0 0 15 15" fill="none" xmlns="http://www.w3.org/2000/svg">
<g clip-path="url(#clip0)">
<path d="M12.9884 7.93945H14.5605C14.7383 7.93945 14.8985 7.83237 14.9665 7.66816C15.0334 7.50677 14.9982 7.32144 14.8777 7.19578C14.8755 7.1935 14.8733 7.19121 14.871 7.18898C14.0732 6.42349 14.0733 5.04621 14.871 4.28071C14.8733 4.27846 14.8755 4.2762 14.8777 4.27392C14.9982 4.14826 15.0334 3.96293 14.9665 3.80153C14.8985 3.63732 14.7383 3.53024 14.5605 3.53024H12.9884C12.3033 2.75068 12.3553 1.47146 13.1061 0.750146C13.2318 0.624463 13.2694 0.435439 13.2014 0.27123C13.1334 0.10708 12.9732 0 12.7954 0H1.54266C0.692051 0 0 0.692051 0 1.54266V2.86652C0 3.71713 0.692051 4.40918 1.54266 4.40918H1.91546C1.81916 4.61033 1.76511 4.83542 1.76511 5.07293V6.3968C1.76511 6.63431 1.81916 6.85939 1.91546 7.06055H1.54266C0.692051 7.06055 0 7.7526 0 8.6032V9.92707C0 10.7777 0.692051 11.4697 1.54266 11.4697H1.91546C1.81916 11.6709 1.76511 11.896 1.76511 12.1335V13.4573C1.76511 14.308 2.45716 15 3.30776 15H14.5605C14.7383 15 14.8985 14.8929 14.9665 14.7287C15.0334 14.5673 14.9982 14.382 14.8777 14.2563C14.8755 14.254 14.8733 14.2518 14.871 14.2495C14.0732 13.484 14.0733 12.1068 14.871 11.3413C14.8733 11.339 14.8755 11.3367 14.8777 11.3345C14.9982 11.2088 15.0334 11.0235 14.9665 10.8621C14.8985 10.6979 14.7383 10.5908 14.5605 10.5908H12.9884C12.346 9.85966 12.346 8.67062 12.9884 7.93945ZM0.878906 2.86652V1.54266C0.878906 1.17668 1.17668 0.878906 1.54266 0.878906H11.9394C11.5215 1.68331 11.5215 2.7259 11.9394 3.53027H1.54266C1.17668 3.53027 0.878906 3.2325 0.878906 2.86652ZM5.29175 4.40918H6.17798V5.26547L5.92069 5.14541C5.7612 5.071 5.61721 5.11359 5.549 5.14541L5.29172 5.26547V4.40918H5.29175ZM2.64404 6.3968V5.07293C2.64404 4.70692 2.94182 4.40918 3.30779 4.40918H4.41284V5.9555C4.41284 6.10567 4.48954 6.24548 4.61622 6.32616C4.7429 6.40682 4.90198 6.41722 5.03813 6.3537L5.73486 6.02856L6.4316 6.3537C6.48861 6.3803 6.66797 6.44429 6.85351 6.32616C6.98019 6.24548 7.05688 6.10567 7.05688 5.9555V4.40918H13.7046C13.2866 5.21358 13.2866 6.25617 13.7046 7.06055H3.30779C2.94182 7.06055 2.64404 6.76277 2.64404 6.3968ZM8.82202 7.93945H9.70825V8.79574L9.451 8.67568C9.38282 8.6439 9.23883 8.60127 9.07928 8.67568L8.82202 8.79574V7.93945ZM13.7046 14.1211H3.30779C2.94179 14.1211 2.64404 13.8233 2.64404 13.4573V12.1335C2.64404 11.7675 2.94182 11.4697 3.30779 11.4697H13.7046C13.2866 12.2741 13.2866 13.3167 13.7046 14.1211ZM1.54266 10.5908C1.17668 10.5908 0.878906 10.293 0.878906 9.92707V8.6032C0.878906 8.23723 1.17668 7.93945 1.54266 7.93945H7.94312V9.48577C7.94312 9.63595 8.01981 9.77575 8.14649 9.85644C8.27314 9.93709 8.43226 9.94749 8.5684 9.88397L9.26511 9.55884L9.96182 9.88397C10.0189 9.91058 10.1982 9.97456 10.3837 9.85644C10.5104 9.77575 10.5871 9.63595 10.5871 9.48577V7.93945H11.9394C11.5214 8.74386 11.5214 9.78645 11.9394 10.5908H1.54266Z" fill="#705FF5"/>
</g>
<defs>
<clipPath id="clip0">
<rect width="15" height="15" fill="white"/>
</clipPath>
</defs>
</svg>
