<svg width="15" height="15" viewBox="0 0 15 15" fill="none" xmlns="http://www.w3.org/2000/svg">
<path d="M14.8312 10.889L12.0187 8.54527C11.8791 8.42809 11.6841 8.40465 11.52 8.48059C11.355 8.5584 11.25 8.7234 11.25 8.90527V10.3115H10.4653C9.81469 10.3115 9.22031 9.98152 8.87531 9.43027L5.83969 4.57402C5.15063 3.47059 3.96187 2.81152 2.65969 2.81152H0V4.68652H2.65969C3.31031 4.68652 3.90469 5.01652 4.24969 5.56777L7.28531 10.424C7.97531 11.5275 9.16406 12.1865 10.4653 12.1865H11.25V13.5928C11.25 13.7746 11.355 13.9396 11.52 14.0175C11.5828 14.0465 11.6512 14.0615 11.7188 14.0615C11.8266 14.0615 11.9334 14.025 12.0187 13.9528L14.8312 11.609C14.9391 11.52 15 11.3878 15 11.249C15 11.1103 14.9391 10.9781 14.8312 10.889Z" fill="#705FF5"/>
<path d="M14.8312 3.3893L12.0187 1.04555C11.879 0.929303 11.684 0.904928 11.52 0.981803C11.355 1.05774 11.25 1.22368 11.25 1.40555V2.8118H10.4653C9.1631 2.8118 7.97435 3.47087 7.28529 4.5743L7.1156 4.84618L8.22091 6.61524L8.87529 5.56805C9.22029 5.0168 9.81466 4.6868 10.4653 4.6868H11.25V6.09305C11.25 6.27493 11.355 6.44087 11.52 6.51774C11.5828 6.5468 11.6512 6.5618 11.7187 6.5618C11.8265 6.5618 11.9334 6.5243 12.0187 6.45305L14.8312 4.1093C14.939 4.02024 15 3.88805 15 3.7493C15 3.61055 14.939 3.47837 14.8312 3.3893Z" fill="#705FF5"/>
<path d="M4.90406 8.38379L4.25062 9.43098C3.90562 9.98223 3.31031 10.3122 2.65969 10.3122H0V12.1872H2.65969C3.96094 12.1872 5.14969 11.5282 5.83969 10.4247L6.00937 10.1529L4.90406 8.38379Z" fill="#705FF5"/>
</svg>
