<svg width="20" height="20" viewBox="0 0 20 20" fill="none" xmlns="http://www.w3.org/2000/svg">
<g clip-path="url(#clip0)">
<path d="M9.99993 0C6.31849 0 3.32349 2.995 3.32349 6.67645C3.32349 10.3577 6.31849 13.3529 9.99993 13.3529C13.6812 13.3529 16.6764 10.3577 16.6764 6.67645C16.6764 2.995 13.6812 0 9.99993 0ZM9.99993 12.0395C7.04282 12.0395 4.63688 9.63356 4.63688 6.67645C4.63688 3.71934 7.04282 1.3134 9.99993 1.3134C12.9573 1.3134 15.363 3.71934 15.363 6.67645C15.363 9.63356 12.9573 12.0395 9.99993 12.0395Z" fill="#705FF5"/>
<path d="M14.6616 19.0819L14.3333 11.2891L13.0212 11.3442L13.3075 18.1367L10.5947 15.7993C10.2556 15.4825 9.74408 15.4821 9.40478 15.7993L6.69217 18.1365L6.9785 11.3442L5.66619 11.2891L5.33783 19.0819C5.3376 19.0911 5.3374 19.1003 5.3374 19.1095C5.3374 19.4573 5.53943 19.775 5.85225 19.9186C6.16658 20.0635 6.52775 20.0116 6.79482 19.782L9.99994 17.0205L13.206 19.783C13.3723 19.9255 13.5757 19.9993 13.7814 19.9993C13.9053 19.9993 14.0299 19.9728 14.1476 19.9185C14.4602 19.775 14.6623 19.4573 14.6623 19.1095C14.6623 19.1003 14.6621 19.0911 14.6616 19.0819Z" fill="#705FF5"/>
<path d="M12.9162 4.67875C12.6596 4.42219 12.2442 4.42219 11.9876 4.67875L9.12749 7.53891L7.79679 6.19203C7.54179 5.93395 7.12609 5.93133 6.868 6.18633C6.60992 6.44133 6.6073 6.85703 6.8623 7.11512L8.65726 8.93199C8.78027 9.05656 8.94753 9.1268 9.12242 9.12727C9.12308 9.12727 9.12374 9.12727 9.12437 9.12727C9.29839 9.12727 9.46562 9.05809 9.58886 8.93465L12.9161 5.60738C13.1728 5.35098 13.1728 4.93508 12.9162 4.67875Z" fill="#705FF5"/>
</g>
<defs>
<clipPath id="clip0">
<rect width="20" height="20" fill="white"/>
</clipPath>
</defs>
</svg>
