<svg width="24" height="24" viewBox="0 0 24 24" fill="none" xmlns="http://www.w3.org/2000/svg">
<path d="M0.610802 19.5532L11.3289 6.34246C11.1762 6.08225 11.2086 5.76622 11.3885 5.54422L12.2634 4.46507C10.663 3.27242 9.56566 2.95714 7.16163 2.87094C6.46117 2.84586 6.22624 1.91708 6.83078 1.5621C10.4951 -0.589653 13.9282 -0.522809 16.759 1.7555L19.7461 4.15977C20.0495 4.40394 20.0965 4.84883 19.8507 5.15103C19.6104 5.44663 19.6488 5.88449 19.9577 6.13302C20.2601 6.37649 20.7047 6.32938 20.9486 6.02792C21.1923 5.72666 21.6338 5.67946 21.9357 5.92213L23.215 6.95038C24.1231 7.68116 24.2657 9.00669 23.5308 9.91316L21.7618 12.0952C21.0303 12.9974 19.6994 13.1376 18.7956 12.4101L17.5166 11.3821C17.2134 11.1383 17.1658 10.6939 17.411 10.3915C17.6548 10.0907 17.6073 9.65221 17.3058 9.40953C17.003 9.16578 16.5579 9.2128 16.3134 9.5143C16.1214 9.75111 15.8073 9.82977 15.535 9.73452L4.84849 22.9814C3.90082 24.1565 2.18336 24.3357 1.01346 23.3898C-0.159309 22.4414 -0.339636 20.7243 0.610802 19.5532ZM14.4138 8.88482L12.3951 7.26008L10.8638 9.1475L12.8889 10.775L14.4138 8.88482ZM18.9611 9.73081C18.9948 10.0476 18.9573 10.3611 18.8539 10.653L19.6769 11.3145C19.9797 11.5582 20.425 11.5112 20.6694 11.2097L22.4385 9.02769C22.682 8.72727 22.635 8.28856 22.3337 8.04603L21.5075 7.382C20.7677 7.83603 19.7896 7.8028 19.076 7.22839C18.3478 6.64231 18.1225 5.6923 18.4082 4.88788L15.8773 2.85097C14.088 1.41083 12.0503 1.04371 9.79844 1.74997C11.2091 2.06291 12.2939 2.66924 13.7024 3.80282C14.0055 4.04671 14.0527 4.49094 13.8077 4.79324L12.9252 5.88172L15.7556 8.1598C17.0808 7.34816 18.7978 8.19571 18.9611 9.73081ZM1.89761 22.2964C2.46391 22.7542 3.29468 22.668 3.754 22.0986L12.0061 11.8694L9.97793 10.2395L1.70275 20.4391C1.24268 21.006 1.32982 21.8373 1.89761 22.2964Z" fill="black"/>
</svg>
