<svg width="24" height="24" viewBox="0 0 24 24" fill="none" xmlns="http://www.w3.org/2000/svg">
<path d="M23.73 17.424L19.23 13.674C19.0065 13.4865 18.6945 13.449 18.432 13.5705C18.168 13.695 18 13.959 18 14.25V16.5H16.7445C15.7035 16.5 14.7525 15.972 14.2005 15.09L9.3435 7.32C8.241 5.5545 6.339 4.5 4.2555 4.5H0V7.5H4.2555C5.2965 7.5 6.2475 8.028 6.7995 8.91L11.6565 16.68C12.7605 18.4455 14.6625 19.5 16.7445 19.5H18V21.75C18 22.041 18.168 22.305 18.432 22.4295C18.5325 22.476 18.642 22.5 18.75 22.5C18.9225 22.5 19.0935 22.4415 19.23 22.326L23.73 18.576C23.9025 18.4335 24 18.222 24 18C24 17.778 23.9025 17.5665 23.73 17.424Z" fill="black"/>
<path d="M23.73 5.42289L19.23 1.67288C19.0065 1.48688 18.6945 1.44788 18.432 1.57088C18.168 1.69238 18 1.95788 18 2.24888V4.49888H16.7445C14.661 4.49888 12.759 5.55338 11.6565 7.31889L11.385 7.75388L13.1535 10.5844L14.2005 8.90889C14.7525 8.02689 15.7035 7.49889 16.7445 7.49889H18V9.74889C18 10.0399 18.168 10.3054 18.432 10.4284C18.5325 10.4749 18.642 10.4989 18.75 10.4989C18.9225 10.4989 19.0935 10.4389 19.23 10.3249L23.73 6.57489C23.9025 6.43239 24 6.22089 24 5.99889C24 5.77689 23.9025 5.56539 23.73 5.42289Z" fill="black"/>
<path d="M7.8465 13.4141L6.801 15.0896C6.249 15.9716 5.2965 16.4996 4.2555 16.4996H0V19.4996H4.2555C6.3375 19.4996 8.2395 18.4451 9.3435 16.6796L9.615 16.2446L7.8465 13.4141Z" fill="black"/>
</svg>
