<svg width="15" height="15" viewBox="0 0 15 15" fill="none" xmlns="http://www.w3.org/2000/svg">
<path d="M11.2272 7.75896C10.9992 7.31004 10.6918 6.89897 10.3256 6.55037C10.9271 5.83562 11.2646 4.92413 11.2646 3.98438C11.2646 1.78737 9.47725 0 7.28027 0C5.08327 0 3.2959 1.78737 3.2959 3.98438V15H5.93262V13.9703C6.3653 14.1095 6.8163 14.1797 7.28027 14.1797C9.71959 14.1797 11.7041 12.1952 11.7041 9.75586C11.7041 9.05391 11.5436 8.38204 11.2272 7.75896ZM7.28027 13.3008C6.72196 13.3008 6.18724 13.174 5.69095 12.9238L5.05371 12.6026V14.1211H4.1748V3.98438C4.1748 2.272 5.5679 0.878906 7.28027 0.878906C8.99262 0.878906 10.3857 2.272 10.3857 3.98438C10.3857 4.84436 10.0226 5.67422 9.3893 6.26127L9.00586 6.6167L9.42193 6.93328C10.3137 7.61177 10.8252 8.64056 10.8252 9.75586C10.8252 11.7105 9.23496 13.3008 7.28027 13.3008Z" fill="#705FF5"/>
<path d="M7.71973 7.12605V6.1674C8.73771 5.96282 9.50684 5.06171 9.50684 3.98438C9.50684 2.75663 8.50799 1.75781 7.28027 1.75781C6.05253 1.75781 5.05371 2.75663 5.05371 3.98438V11.2279L5.14061 11.3447C5.64258 12.0192 6.44244 12.4219 7.28027 12.4219C8.75033 12.4219 9.94629 11.2259 9.94629 9.75586C9.94629 8.43548 8.9814 7.3362 7.71973 7.12605ZM7.28027 11.543C6.75683 11.543 6.27296 11.3205 5.93262 10.9281V3.98438C5.93262 3.24129 6.53719 2.63672 7.28027 2.63672C8.02336 2.63672 8.62793 3.24129 8.62793 3.98438C8.62793 4.72746 8.02336 5.33203 7.28027 5.33203H6.84082V7.96875H7.28027C8.2657 7.96875 9.06738 8.77043 9.06738 9.75586C9.06738 10.7413 8.2657 11.543 7.28027 11.543Z" fill="#705FF5"/>
</svg>
