<svg width="15" height="15" viewBox="0 0 15 15" fill="none" xmlns="http://www.w3.org/2000/svg">
<path d="M2.02037 8.60547C0.906357 8.60547 0 9.51182 0 10.6258V12.9783C0 14.0924 0.906357 14.9987 2.0204 14.9987C3.13444 14.9987 4.04077 14.0924 4.04077 12.9783V10.6258C4.04077 9.51182 3.13441 8.60547 2.02037 8.60547ZM2.86887 12.9783C2.86887 13.4462 2.48824 13.8269 2.02037 13.8269C1.55253 13.8269 1.17188 13.4462 1.17188 12.9783V10.6258C1.17188 10.158 1.55253 9.77734 2.0204 9.77734C2.48827 9.77734 2.8689 10.158 2.86887 10.6258V12.9783Z" fill="#705FF5"/>
<path d="M7.50001 0C6.38597 0 5.47961 0.906357 5.47961 2.0204V12.9796C5.47961 14.0936 6.38597 15 7.50001 15C8.61405 15 9.5204 14.0936 9.5204 12.9796V2.0204C9.5204 0.906357 8.61405 0 7.50001 0ZM8.34853 12.9796C8.34853 13.4475 7.96788 13.8281 7.50001 13.8281C7.03214 13.8281 6.65149 13.4475 6.65149 12.9796V2.0204C6.65149 1.5525 7.03214 1.17188 7.50001 1.17188C7.96788 1.17188 8.34853 1.5525 8.34853 2.0204V12.9796Z" fill="#705FF5"/>
<path d="M12.9795 4.30273C11.8655 4.30273 10.9592 5.20909 10.9592 6.32313V12.979C10.9592 14.093 11.8655 14.9994 12.9796 14.9994C14.0936 14.9994 15 14.093 15 12.979V6.32313C15 5.20909 14.0936 4.30273 12.9795 4.30273ZM13.8281 12.979C13.8281 13.4469 13.4474 13.8275 12.9795 13.8275C12.5117 13.8275 12.131 13.4469 12.131 12.979V6.32313C12.131 5.85523 12.5117 5.47461 12.9796 5.47461C13.4474 5.47461 13.8281 5.85523 13.8281 6.32313V12.979Z" fill="#705FF5"/>
</svg>
