<svg width="15" height="15" viewBox="0 0 15 15" fill="none" xmlns="http://www.w3.org/2000/svg">
<path d="M7.44574 8.08242C7.46128 8.08242 7.47681 8.08242 7.49544 8.08242C7.50166 8.08242 7.50787 8.08242 7.51408 8.08242C7.5234 8.08242 7.53583 8.08242 7.54514 8.08242C8.45527 8.06689 9.19145 7.74695 9.73504 7.13502C10.9309 5.78691 10.7321 3.47588 10.7104 3.25533C10.6327 1.59971 9.84997 0.807621 9.20387 0.437979C8.72241 0.161524 8.16018 0.0124249 7.53272 0H7.51098C7.50787 0 7.50166 0 7.49855 0H7.47991C7.13512 0 6.45796 0.0559122 5.80876 0.425554C5.15645 0.795196 4.36126 1.58729 4.2836 3.25533C4.26186 3.47588 4.06306 5.78691 5.25896 7.13502C5.79944 7.74695 6.53562 8.06689 7.44574 8.08242ZM5.11296 3.33299C5.11296 3.32367 5.11607 3.31435 5.11607 3.30814C5.21858 1.08097 6.79965 0.841789 7.47681 0.841789H7.48923C7.49544 0.841789 7.50476 0.841789 7.51408 0.841789C8.35276 0.860427 9.77853 1.20211 9.87482 3.30814C9.87482 3.31746 9.87482 3.32678 9.87793 3.33299C9.88103 3.35473 10.0985 5.46697 9.11069 6.579C8.7193 7.02009 8.19745 7.23752 7.51098 7.24374C7.50476 7.24374 7.50166 7.24374 7.49544 7.24374C7.48923 7.24374 7.48613 7.24374 7.47991 7.24374C6.79654 7.23752 6.27159 7.02009 5.88331 6.579C4.89863 5.47318 5.10986 3.35163 5.11296 3.33299Z" fill="#705FF5"/>
<path d="M13.8787 11.9155C13.8787 11.9124 13.8787 11.9093 13.8787 11.9062C13.8787 11.8813 13.8756 11.8565 13.8756 11.8285C13.857 11.2135 13.8166 9.77532 12.4685 9.3156C12.4592 9.31249 12.4468 9.30939 12.4375 9.30628C11.0365 8.94907 9.87171 8.14144 9.85928 8.13213C9.6698 7.99856 9.40888 8.04515 9.27531 8.23463C9.14174 8.42411 9.18834 8.68504 9.37782 8.8186C9.43062 8.85588 10.6669 9.7163 12.2138 10.1139C12.9376 10.3717 13.0183 11.1452 13.0401 11.8534C13.0401 11.8813 13.0401 11.9062 13.0432 11.931C13.0463 12.2106 13.0276 12.6424 12.9779 12.8909C12.4747 13.1766 10.5023 14.1644 7.50165 14.1644C4.51346 14.1644 2.52857 13.1735 2.02226 12.8878C1.97256 12.6393 1.95082 12.2075 1.95703 11.9279C1.95703 11.9031 1.96013 11.8782 1.96013 11.8503C1.98188 11.1421 2.06264 10.3686 2.78639 10.1108C4.3333 9.7132 5.56958 8.84967 5.62238 8.8155C5.81186 8.68193 5.85846 8.42101 5.72489 8.23153C5.59132 8.04205 5.3304 7.99545 5.14092 8.12902C5.12849 8.13834 3.96987 8.94596 2.56274 9.30318C2.55032 9.30628 2.541 9.30939 2.53168 9.31249C1.18358 9.77532 1.14319 11.2135 1.12456 11.8254C1.12456 11.8534 1.12456 11.8782 1.12145 11.9031C1.12145 11.9062 1.12145 11.9093 1.12145 11.9124C1.11834 12.0739 1.11524 12.9033 1.27987 13.3195C1.31093 13.4003 1.36684 13.4686 1.44139 13.5152C1.53458 13.5774 3.76796 15 7.50476 15C11.2416 15 13.4749 13.5742 13.5681 13.5152C13.6396 13.4686 13.6986 13.4003 13.7297 13.3195C13.885 12.9064 13.8819 12.077 13.8787 11.9155Z" fill="#705FF5"/>
</svg>
