<svg width="16" height="16" viewBox="0 0 16 16" fill="none" xmlns="http://www.w3.org/2000/svg">
<g clip-path="url(#clip0)">
<path d="M14.2035 15.2968L8.46884 5.36396V3.94999H12.2678C12.4574 3.94999 12.6283 3.83577 12.7008 3.66062C12.7734 3.48546 12.7333 3.28384 12.5992 3.14977L11.4244 1.975L12.5992 0.800186C12.7333 0.666124 12.7734 0.464499 12.7009 0.289343C12.6283 0.114219 12.4574 0 12.2678 0H8.00009C7.74122 0 7.53134 0.209875 7.53134 0.468749V5.36396L1.7966 15.2968C1.61495 15.6027 1.84692 16.0043 2.20254 16H13.7976C14.1534 16.0043 14.3852 15.6026 14.2035 15.2968ZM8.46884 0.937498H11.1361L10.4301 1.64356C10.2485 1.81812 10.2485 2.13193 10.4301 2.30646L11.1361 3.01249H8.46881V0.937498H8.46884ZM8.00009 6.42705L9.42918 8.90229C8.6145 9.52214 7.38562 9.52211 6.57097 8.90229L8.00009 6.42705ZM3.01444 15.0625L6.10003 9.71804C7.19769 10.4995 8.80256 10.4995 9.90015 9.71801L12.9857 15.0625H3.01444Z" fill="#705FF5"/>
</g>
<defs>
<clipPath id="clip0">
<rect width="16" height="16" fill="white"/>
</clipPath>
</defs>
</svg>
