<svg width="15" height="15" viewBox="0 0 15 15" fill="none" xmlns="http://www.w3.org/2000/svg">
<g clip-path="url(#clip0)">
<path d="M14.5308 7.03122H8.59349C8.33475 7.03122 8.12476 6.82123 8.12476 6.56248C8.12476 6.30374 8.33475 6.09375 8.59349 6.09375H14.5308C14.7896 6.09375 14.9996 6.30374 14.9996 6.56248C14.9996 6.82123 14.7896 7.03122 14.5308 7.03122Z" fill="#705FF5"/>
<path d="M12.187 9.37496C12.067 9.37496 11.947 9.3293 11.8557 9.23752C11.6726 9.05431 11.6726 8.75746 11.8557 8.57436L13.8682 6.56198L11.8557 4.54948C11.6726 4.36638 11.6726 4.06953 11.8557 3.88643C12.0389 3.70322 12.3358 3.70322 12.5189 3.88643L14.8626 6.23011C15.0457 6.41321 15.0457 6.71006 14.8626 6.89316L12.5189 9.23684C12.427 9.3293 12.3071 9.37496 12.187 9.37496Z" fill="#705FF5"/>
<path d="M4.99988 15.0005C4.8661 15.0005 4.73919 14.9817 4.6124 14.9424L0.851185 13.6893C0.339421 13.5105 0 13.0337 0 12.5006V1.25098C0 0.561605 0.560629 0.000976562 1.25 0.000976562C1.38366 0.000976562 1.51057 0.0197443 1.63748 0.0591108L5.39858 1.3122C5.91046 1.49095 6.24977 1.96781 6.24977 2.50086V13.7505C6.24977 14.4399 5.68925 15.0005 4.99988 15.0005ZM1.25 0.938447C1.07811 0.938447 0.937471 1.07909 0.937471 1.25098V12.5006C0.937471 12.6337 1.02685 12.7574 1.15433 12.8018L4.89792 14.0493C4.92481 14.058 4.95983 14.063 4.99988 14.063C5.17177 14.063 5.3123 13.9224 5.3123 13.7505V2.50086C5.3123 2.36777 5.22292 2.24406 5.09544 2.19966L1.35185 0.95218C1.32496 0.943483 1.28994 0.938447 1.25 0.938447Z" fill="#705FF5"/>
<path d="M9.5309 5.00086C9.27216 5.00086 9.06217 4.79087 9.06217 4.53212V1.71971C9.06217 1.28908 8.71164 0.938447 8.28102 0.938447H1.24999C0.991243 0.938447 0.78125 0.728455 0.78125 0.469712C0.78125 0.210969 0.991243 0.000976562 1.24999 0.000976562H8.28102C9.22913 0.000976562 9.99964 0.771598 9.99964 1.71971V4.53212C9.99964 4.79087 9.78964 5.00086 9.5309 5.00086Z" fill="#705FF5"/>
<path d="M8.28099 13.1249H5.78099C5.52225 13.1249 5.31226 12.9149 5.31226 12.6561C5.31226 12.3974 5.52225 12.1874 5.78099 12.1874H8.28099C8.71162 12.1874 9.06214 11.8368 9.06214 11.4061V8.59374C9.06214 8.33499 9.27213 8.125 9.53087 8.125C9.78962 8.125 9.99961 8.33499 9.99961 8.59374V11.4061C9.99961 12.3543 9.2291 13.1249 8.28099 13.1249Z" fill="#705FF5"/>
</g>
<defs>
<clipPath id="clip0">
<rect width="15" height="15" fill="white"/>
</clipPath>
</defs>
</svg>
