<svg width="15" height="15" viewBox="0 0 15 15" fill="none" xmlns="http://www.w3.org/2000/svg">
<circle cx="7.5" cy="7.5" r="3.3" stroke="#705FF5" stroke-width="0.9"/>
<mask id="path-2-inside-1" fill="white">
<path d="M13.2422 5.44925H12.9471C12.8695 5.44925 12.7991 5.40035 12.7687 5.32658L12.7634 5.31393C12.7319 5.23793 12.747 5.15335 12.8019 5.09845L13.0105 4.88979C13.6959 4.20442 13.6959 3.08924 13.0105 2.40387L12.5962 1.98955C12.2642 1.65753 11.8228 1.47469 11.3532 1.47469C10.8837 1.47469 10.4423 1.65753 10.1103 1.98955L9.90164 2.19817C9.84671 2.25311 9.76204 2.26816 9.6864 2.23673L9.67535 2.23216C9.59968 2.2009 9.55081 2.13056 9.55081 2.05295V1.75781C9.55081 0.788555 8.76226 0 7.793 0H7.20706C6.2378 0 5.44925 0.788555 5.44925 1.75781V2.05295C5.44925 2.13056 5.40038 2.2009 5.32535 2.23187L5.3139 2.23661C5.23799 2.26819 5.15332 2.25311 5.09845 2.1982L4.88979 1.98955C4.5578 1.65753 4.11636 1.47469 3.64682 1.47469C3.17728 1.47469 2.73586 1.65753 2.40384 1.98955L1.98952 2.40381C1.30415 3.08921 1.30415 4.20437 1.98955 4.88977L2.19817 5.09839C2.25308 5.15332 2.26813 5.2379 2.2357 5.31606L2.23216 5.32462C2.20093 5.40029 2.13053 5.44919 2.05292 5.44919H1.75781C0.788555 5.44919 0 6.23774 0 7.207V7.79294C0 8.7622 0.788555 9.55075 1.75781 9.55075H2.05289C2.13053 9.55075 2.20087 9.59965 2.23137 9.67342L2.23658 9.68607C2.26813 9.76207 2.25305 9.84665 2.19814 9.90155L1.98952 10.1102C1.6575 10.4422 1.47466 10.8836 1.47466 11.3532C1.47466 11.8227 1.6575 12.2641 1.98949 12.5961L2.40381 13.0104C2.73583 13.3425 3.17728 13.5253 3.64679 13.5253C4.11636 13.5253 4.55777 13.3425 4.88977 13.0104L5.09839 12.8018C5.15326 12.7469 5.23796 12.7318 5.31363 12.7633L5.32468 12.7678C5.40035 12.7991 5.44922 12.8694 5.44922 12.9471V13.2422C5.44922 14.2114 6.23777 15 7.20703 15H7.79297C8.76223 15 9.55078 14.2114 9.55078 13.2422V12.9471C9.55078 12.8694 9.59965 12.7991 9.67468 12.7681L9.68613 12.7634C9.7621 12.7319 9.84671 12.7469 9.90158 12.8018L10.1102 13.0104C10.4422 13.3425 10.8837 13.5253 11.3532 13.5253C11.8228 13.5253 12.2642 13.3425 12.5962 13.0104L13.0105 12.5961C13.3425 12.2641 13.5253 11.8227 13.5253 11.3532C13.5253 10.8836 13.3425 10.4422 13.0105 10.1102L12.8019 9.90158C12.7469 9.84668 12.7319 9.7621 12.7634 9.6861L12.7678 9.67538C12.7991 9.59971 12.8695 9.55081 12.9471 9.55081H13.2422C14.2114 9.55081 15 8.76226 15 7.793V7.20706C15 6.2378 14.2114 5.44925 13.2422 5.44925ZM13.8281 7.79297C13.8281 8.11605 13.5653 8.37891 13.2422 8.37891H12.9471C12.3932 8.37891 11.8977 8.71219 11.6847 9.22802L11.6809 9.23722C11.4671 9.75281 11.5818 10.3388 11.9732 10.7302L12.1818 10.9389C12.2925 11.0495 12.3534 11.1967 12.3534 11.3532C12.3534 11.5097 12.2925 11.6568 12.1818 11.7675L11.7675 12.1818C11.6568 12.2925 11.5097 12.3534 11.3532 12.3534C11.1967 12.3534 11.0495 12.2925 10.9389 12.1818L10.7302 11.9731C10.3385 11.5816 9.75223 11.467 9.23631 11.6813L9.22805 11.6847C8.71222 11.8977 8.37891 12.3932 8.37891 12.9471V13.2422C8.37891 13.5653 8.11605 13.8281 7.79297 13.8281H7.20703C6.88395 13.8281 6.62109 13.5653 6.62109 13.2422V12.9471C6.62109 12.3932 6.28778 11.8977 5.77134 11.6844L5.76343 11.6812C5.59087 11.6095 5.41049 11.5746 5.23207 11.5746C4.87726 11.5746 4.53038 11.7126 4.26979 11.9732L4.06113 12.1818C3.95045 12.2925 3.80335 12.3534 3.64682 12.3534C3.49031 12.3534 3.34315 12.2925 3.2325 12.1818L2.81818 11.7675C2.7075 11.6568 2.64656 11.5097 2.64656 11.3532C2.64656 11.1967 2.7075 11.0495 2.81818 10.9389L3.02684 10.7302C3.41827 10.3388 3.53294 9.75281 3.3191 9.23722L3.31529 9.22802C3.10225 8.71219 2.60675 8.37891 2.05292 8.37891H1.75781C1.43473 8.37891 1.17188 8.11605 1.17188 7.79297V7.20703C1.17188 6.88395 1.43473 6.62109 1.75781 6.62109H2.05292C2.60678 6.62109 3.10228 6.28781 3.31608 5.77011L3.31881 5.76346C3.53303 5.24771 3.41842 4.66143 3.02681 4.26979L2.81818 4.06116C2.5897 3.83268 2.5897 3.46096 2.81818 3.2325L3.23247 2.81818C3.34318 2.70753 3.49031 2.64656 3.64682 2.64656C3.80335 2.64656 3.95048 2.7075 4.06113 2.81818L4.26981 3.02687C4.66148 3.41845 5.2478 3.53306 5.76369 3.31872L5.77195 3.31529C6.28778 3.1023 6.62109 2.60681 6.62109 2.05295V1.75781C6.62109 1.43473 6.88395 1.17188 7.20703 1.17188H7.79297C8.11605 1.17188 8.37891 1.43473 8.37891 1.75781V2.05295C8.37891 2.60681 8.71222 3.1023 9.22866 3.31553L9.23657 3.31881C9.75223 3.53297 10.3385 3.41839 10.7302 3.02681L10.9389 2.81813C11.0496 2.70747 11.1967 2.64653 11.3532 2.64653C11.5097 2.64653 11.6568 2.7075 11.7675 2.81815L12.1818 3.23247C12.4103 3.46093 12.4103 3.83265 12.1818 4.0611L11.9732 4.26979C11.5816 4.66143 11.467 5.24769 11.6803 5.76129L11.6847 5.77198C11.8978 6.28781 12.3933 6.62109 12.9471 6.62109H13.2422C13.5653 6.62109 13.8281 6.88395 13.8281 7.20703V7.79297Z"/>
</mask>
<path d="M13.2422 5.44925H12.9471C12.8695 5.44925 12.7991 5.40035 12.7687 5.32658L12.7634 5.31393C12.7319 5.23793 12.747 5.15335 12.8019 5.09845L13.0105 4.88979C13.6959 4.20442 13.6959 3.08924 13.0105 2.40387L12.5962 1.98955C12.2642 1.65753 11.8228 1.47469 11.3532 1.47469C10.8837 1.47469 10.4423 1.65753 10.1103 1.98955L9.90164 2.19817C9.84671 2.25311 9.76204 2.26816 9.6864 2.23673L9.67535 2.23216C9.59968 2.2009 9.55081 2.13056 9.55081 2.05295V1.75781C9.55081 0.788555 8.76226 0 7.793 0H7.20706C6.2378 0 5.44925 0.788555 5.44925 1.75781V2.05295C5.44925 2.13056 5.40038 2.2009 5.32535 2.23187L5.3139 2.23661C5.23799 2.26819 5.15332 2.25311 5.09845 2.1982L4.88979 1.98955C4.5578 1.65753 4.11636 1.47469 3.64682 1.47469C3.17728 1.47469 2.73586 1.65753 2.40384 1.98955L1.98952 2.40381C1.30415 3.08921 1.30415 4.20437 1.98955 4.88977L2.19817 5.09839C2.25308 5.15332 2.26813 5.2379 2.2357 5.31606L2.23216 5.32462C2.20093 5.40029 2.13053 5.44919 2.05292 5.44919H1.75781C0.788555 5.44919 0 6.23774 0 7.207V7.79294C0 8.7622 0.788555 9.55075 1.75781 9.55075H2.05289C2.13053 9.55075 2.20087 9.59965 2.23137 9.67342L2.23658 9.68607C2.26813 9.76207 2.25305 9.84665 2.19814 9.90155L1.98952 10.1102C1.6575 10.4422 1.47466 10.8836 1.47466 11.3532C1.47466 11.8227 1.6575 12.2641 1.98949 12.5961L2.40381 13.0104C2.73583 13.3425 3.17728 13.5253 3.64679 13.5253C4.11636 13.5253 4.55777 13.3425 4.88977 13.0104L5.09839 12.8018C5.15326 12.7469 5.23796 12.7318 5.31363 12.7633L5.32468 12.7678C5.40035 12.7991 5.44922 12.8694 5.44922 12.9471V13.2422C5.44922 14.2114 6.23777 15 7.20703 15H7.79297C8.76223 15 9.55078 14.2114 9.55078 13.2422V12.9471C9.55078 12.8694 9.59965 12.7991 9.67468 12.7681L9.68613 12.7634C9.7621 12.7319 9.84671 12.7469 9.90158 12.8018L10.1102 13.0104C10.4422 13.3425 10.8837 13.5253 11.3532 13.5253C11.8228 13.5253 12.2642 13.3425 12.5962 13.0104L13.0105 12.5961C13.3425 12.2641 13.5253 11.8227 13.5253 11.3532C13.5253 10.8836 13.3425 10.4422 13.0105 10.1102L12.8019 9.90158C12.7469 9.84668 12.7319 9.7621 12.7634 9.6861L12.7678 9.67538C12.7991 9.59971 12.8695 9.55081 12.9471 9.55081H13.2422C14.2114 9.55081 15 8.76226 15 7.793V7.20706C15 6.2378 14.2114 5.44925 13.2422 5.44925ZM13.8281 7.79297C13.8281 8.11605 13.5653 8.37891 13.2422 8.37891H12.9471C12.3932 8.37891 11.8977 8.71219 11.6847 9.22802L11.6809 9.23722C11.4671 9.75281 11.5818 10.3388 11.9732 10.7302L12.1818 10.9389C12.2925 11.0495 12.3534 11.1967 12.3534 11.3532C12.3534 11.5097 12.2925 11.6568 12.1818 11.7675L11.7675 12.1818C11.6568 12.2925 11.5097 12.3534 11.3532 12.3534C11.1967 12.3534 11.0495 12.2925 10.9389 12.1818L10.7302 11.9731C10.3385 11.5816 9.75223 11.467 9.23631 11.6813L9.22805 11.6847C8.71222 11.8977 8.37891 12.3932 8.37891 12.9471V13.2422C8.37891 13.5653 8.11605 13.8281 7.79297 13.8281H7.20703C6.88395 13.8281 6.62109 13.5653 6.62109 13.2422V12.9471C6.62109 12.3932 6.28778 11.8977 5.77134 11.6844L5.76343 11.6812C5.59087 11.6095 5.41049 11.5746 5.23207 11.5746C4.87726 11.5746 4.53038 11.7126 4.26979 11.9732L4.06113 12.1818C3.95045 12.2925 3.80335 12.3534 3.64682 12.3534C3.49031 12.3534 3.34315 12.2925 3.2325 12.1818L2.81818 11.7675C2.7075 11.6568 2.64656 11.5097 2.64656 11.3532C2.64656 11.1967 2.7075 11.0495 2.81818 10.9389L3.02684 10.7302C3.41827 10.3388 3.53294 9.75281 3.3191 9.23722L3.31529 9.22802C3.10225 8.71219 2.60675 8.37891 2.05292 8.37891H1.75781C1.43473 8.37891 1.17188 8.11605 1.17188 7.79297V7.20703C1.17188 6.88395 1.43473 6.62109 1.75781 6.62109H2.05292C2.60678 6.62109 3.10228 6.28781 3.31608 5.77011L3.31881 5.76346C3.53303 5.24771 3.41842 4.66143 3.02681 4.26979L2.81818 4.06116C2.5897 3.83268 2.5897 3.46096 2.81818 3.2325L3.23247 2.81818C3.34318 2.70753 3.49031 2.64656 3.64682 2.64656C3.80335 2.64656 3.95048 2.7075 4.06113 2.81818L4.26981 3.02687C4.66148 3.41845 5.2478 3.53306 5.76369 3.31872L5.77195 3.31529C6.28778 3.1023 6.62109 2.60681 6.62109 2.05295V1.75781C6.62109 1.43473 6.88395 1.17188 7.20703 1.17188H7.79297C8.11605 1.17188 8.37891 1.43473 8.37891 1.75781V2.05295C8.37891 2.60681 8.71222 3.1023 9.22866 3.31553L9.23657 3.31881C9.75223 3.53297 10.3385 3.41839 10.7302 3.02681L10.9389 2.81813C11.0496 2.70747 11.1967 2.64653 11.3532 2.64653C11.5097 2.64653 11.6568 2.7075 11.7675 2.81815L12.1818 3.23247C12.4103 3.46093 12.4103 3.83265 12.1818 4.0611L11.9732 4.26979C11.5816 4.66143 11.467 5.24769 11.6803 5.76129L11.6847 5.77198C11.8978 6.28781 12.3933 6.62109 12.9471 6.62109H13.2422C13.5653 6.62109 13.8281 6.88395 13.8281 7.20703V7.79297Z" fill="#705FF5" stroke="white" stroke-width="0.2" mask="url(#path-2-inside-1)"/>
</svg>
