<svg width="24" height="24" viewBox="0 0 24 24" fill="none" xmlns="http://www.w3.org/2000/svg">
<path d="M17.9635 12.4143C17.5987 11.6961 17.1069 11.0384 16.521 10.4806C17.4833 9.33698 18.0234 7.87861 18.0234 6.375C18.0234 2.8598 15.1636 0 11.6484 0C8.13323 0 5.27344 2.8598 5.27344 6.375V24H9.49219V22.3525C10.1845 22.5751 10.9061 22.6875 11.6484 22.6875C15.5513 22.6875 18.7266 19.5123 18.7266 15.6094C18.7266 14.4862 18.4698 13.4113 17.9635 12.4143ZM11.6484 21.2812C10.7551 21.2812 9.89958 21.0783 9.10552 20.6781L8.08594 20.1642V22.5938H6.67969V6.375C6.67969 3.6352 8.90864 1.40625 11.6484 1.40625C14.3882 1.40625 16.6172 3.6352 16.6172 6.375C16.6172 7.75097 16.0361 9.07875 15.0229 10.018L14.4094 10.5867L15.0751 11.0933C16.502 12.1788 17.3203 13.8249 17.3203 15.6094C17.3203 18.7369 14.7759 21.2812 11.6484 21.2812Z" fill="black"/>
<path d="M12.3516 11.4017V9.86784C13.9803 9.54052 15.2109 8.09873 15.2109 6.375C15.2109 4.41061 13.6128 2.8125 11.6484 2.8125C9.68405 2.8125 8.08594 4.41061 8.08594 6.375V17.9647L8.22497 18.1515C9.02813 19.2307 10.3079 19.875 11.6484 19.875C14.0005 19.875 15.9141 17.9615 15.9141 15.6094C15.9141 13.4968 14.3702 11.7379 12.3516 11.4017ZM11.6484 18.4688C10.8109 18.4688 10.0367 18.1129 9.49219 17.485V6.375C9.49219 5.18606 10.4595 4.21875 11.6484 4.21875C12.8374 4.21875 13.8047 5.18606 13.8047 6.375C13.8047 7.56394 12.8374 8.53125 11.6484 8.53125H10.9453V12.75H11.6484C13.2251 12.75 14.5078 14.0327 14.5078 15.6094C14.5078 17.1861 13.2251 18.4688 11.6484 18.4688Z" fill="black"/>
</svg>
