<svg width="24" height="24" viewBox="0 0 24 24" fill="none" xmlns="http://www.w3.org/2000/svg">
<g clip-path="url(#clip0)">
<path d="M20.7814 12.7031H23.2969C23.5813 12.7031 23.8376 12.5318 23.9465 12.2691C24.0534 12.0108 23.9971 11.7143 23.8043 11.5133C23.8008 11.5096 23.7973 11.5059 23.7936 11.5024C22.5171 10.2776 22.5172 8.07394 23.7936 6.84914C23.7972 6.84553 23.8008 6.84192 23.8043 6.83827C23.9971 6.63722 24.0534 6.34069 23.9465 6.08245C23.8376 5.81972 23.5813 5.64839 23.2969 5.64839H20.7814C19.6852 4.40109 19.7685 2.35434 20.9698 1.20023C21.1709 0.999141 21.231 0.696703 21.1222 0.433969C21.0134 0.171328 20.757 0 20.4727 0H2.46825C1.10728 0 0 1.10728 0 2.46825V4.58644C0 5.94741 1.10728 7.05469 2.46825 7.05469H3.06473C2.91066 7.37653 2.82417 7.73667 2.82417 8.11669V10.2349C2.82417 10.6149 2.91066 10.975 3.06473 11.2969H2.46825C1.10728 11.2969 0 12.4042 0 13.7651V15.8833C0 17.2443 1.10728 18.3516 2.46825 18.3516H3.06473C2.91066 18.6734 2.82417 19.0335 2.82417 19.4136V21.5317C2.82417 22.8928 3.93145 24 5.29242 24H23.2969C23.5813 24 23.8376 23.8287 23.9465 23.5659C24.0534 23.3077 23.9971 23.0112 23.8043 22.8101C23.8008 22.8065 23.7973 22.8028 23.7936 22.7992C22.5171 21.5745 22.5172 19.3708 23.7936 18.146C23.7972 18.1424 23.8008 18.1388 23.8043 18.1351C23.9971 17.9341 24.0534 17.6376 23.9465 17.3793C23.8376 17.1166 23.5813 16.9453 23.2969 16.9453H20.7814C19.7535 15.7755 19.7535 13.873 20.7814 12.7031ZM1.40625 4.58644V2.46825C1.40625 1.88269 1.88269 1.40625 2.46825 1.40625H19.1031C18.4344 2.6933 18.4344 4.36144 19.1031 5.64844H2.46825C1.88269 5.64844 1.40625 5.172 1.40625 4.58644ZM8.4668 7.05469H9.88477V8.42475L9.47311 8.23266C9.21792 8.11359 8.98753 8.18175 8.87841 8.23266L8.46675 8.42475V7.05469H8.4668ZM4.23047 10.2349V8.11669C4.23047 7.53108 4.70691 7.05469 5.29247 7.05469H7.06055V9.5288C7.06055 9.76908 7.18327 9.99277 7.38595 10.1219C7.58864 10.2509 7.84317 10.2675 8.061 10.1659L9.17578 9.6457L10.2906 10.1659C10.3818 10.2085 10.6687 10.3109 10.9656 10.1219C11.1683 9.99277 11.291 9.76908 11.291 9.5288V7.05469H21.9273C21.2586 8.34173 21.2586 10.0099 21.9273 11.2969H5.29247C4.70691 11.2969 4.23047 10.8204 4.23047 10.2349ZM14.1152 12.7031H15.5332V14.0732L15.1216 13.8811C15.0125 13.8302 14.7821 13.762 14.5268 13.8811L14.1152 14.0732V12.7031ZM21.9273 22.5938H5.29247C4.70686 22.5938 4.23047 22.1173 4.23047 21.5317V19.4136C4.23047 18.828 4.70691 18.3516 5.29247 18.3516H21.9273C21.2586 19.6386 21.2586 21.3067 21.9273 22.5938ZM2.46825 16.9453C1.88269 16.9453 1.40625 16.4689 1.40625 15.8833V13.7651C1.40625 13.1796 1.88269 12.7031 2.46825 12.7031H12.709V15.1772C12.709 15.4175 12.8317 15.6412 13.0344 15.7703C13.237 15.8993 13.4916 15.916 13.7094 15.8144L14.8242 15.2941L15.9389 15.8144C16.0302 15.8569 16.3171 15.9593 16.614 15.7703C16.8166 15.6412 16.9394 15.4175 16.9394 15.1772V12.7031H19.103C18.4343 13.9902 18.4343 15.6583 19.103 16.9453H2.46825Z" fill="black"/>
</g>
<defs>
<clipPath id="clip0">
<rect width="24" height="24" fill="white"/>
</clipPath>
</defs>
</svg>
