<svg width="22" height="22" viewBox="0 0 22 22" fill="none" xmlns="http://www.w3.org/2000/svg">
<path d="M21.9999 15.537C21.9999 14.2497 21.6144 13.0067 20.885 11.9423C20.3603 11.1767 19.6847 10.541 18.9018 10.0685C19.8236 9.19556 20.4003 7.96173 20.4003 6.59495C20.4003 3.95577 18.2532 1.80859 15.614 1.80859C14.0491 1.80859 12.5832 2.58256 11.6927 3.85306C11.4665 3.82011 11.2353 3.80233 11 3.80233C10.7647 3.80233 10.5335 3.82016 10.3073 3.85306C9.41678 2.58256 7.95084 1.80859 6.38596 1.80859C3.74679 1.80859 1.59961 3.95577 1.59961 6.59495C1.59961 7.96173 2.17636 9.19556 3.09821 10.0685C2.31521 10.5409 1.63959 11.1767 1.11499 11.9422C0.385564 13.0067 0 14.2497 0 15.537V18.1993H4.61407V20.193H17.386V18.1993H22V15.537H21.9999ZM15.614 2.98992C17.6019 2.98992 19.2191 4.60712 19.2191 6.59501C19.2191 8.5829 17.6019 10.2001 15.614 10.2001C15.5784 10.2001 15.5428 10.1996 15.5071 10.1985C15.5099 10.1909 15.5121 10.1832 15.5148 10.1757C15.5763 10.0012 15.6276 9.82198 15.6688 9.63894C15.6717 9.62595 15.675 9.61307 15.6778 9.60002C15.6885 9.55064 15.6979 9.50079 15.707 9.45083C15.7113 9.4272 15.7157 9.40364 15.7197 9.37995C15.7271 9.33536 15.7339 9.29059 15.7401 9.24564C15.7444 9.2144 15.7483 9.18315 15.752 9.15185C15.7567 9.11216 15.7612 9.07241 15.7649 9.03242C15.7687 8.99161 15.7716 8.95074 15.7743 8.90981C15.7764 8.87756 15.7791 8.84543 15.7805 8.81301C15.7838 8.74349 15.7856 8.67385 15.7859 8.60416C15.7859 8.59902 15.7863 8.594 15.7863 8.5888C15.7863 8.58603 15.786 8.58325 15.786 8.58047C15.7859 8.5093 15.7838 8.43855 15.7807 8.36802C15.7797 8.34753 15.7785 8.32709 15.7773 8.30666C15.7738 8.24671 15.7693 8.18705 15.7636 8.1277C15.7623 8.11423 15.7613 8.10076 15.7599 8.08736C15.5814 6.36218 14.4915 4.88555 12.9193 4.20254C13.5968 3.44139 14.5768 2.98992 15.614 2.98992ZM9.75262 5.20608C9.76413 5.20189 9.77577 5.19793 9.78729 5.1938C9.82314 5.18098 9.85929 5.16881 9.89561 5.15706C9.92313 5.14826 9.95083 5.13975 9.97871 5.1316C9.99897 5.12564 10.0193 5.11991 10.0397 5.11424C10.076 5.10426 10.1126 5.09451 10.1495 5.08559C10.4224 5.01932 10.707 4.98335 10.9999 4.98335C11.293 4.98359 11.5777 5.01962 11.8506 5.08589C11.8873 5.09475 11.9236 5.10443 11.9598 5.11436C11.9805 5.12009 12.0011 5.12587 12.0216 5.13196C12.0492 5.14005 12.0766 5.14844 12.1038 5.15712C12.1406 5.16899 12.1772 5.18127 12.2134 5.19427C12.2246 5.19823 12.2357 5.20201 12.2469 5.20608C13.4525 5.65195 14.3565 6.72495 14.5611 8.02711C14.5627 8.03751 14.5642 8.04796 14.5657 8.05841C14.5723 8.10254 14.5778 8.14701 14.5827 8.1916C14.5845 8.20802 14.5863 8.22438 14.5879 8.24086C14.5918 8.28156 14.5947 8.32255 14.5973 8.36365C14.5984 8.38125 14.5999 8.3988 14.6007 8.41646C14.6032 8.46896 14.6045 8.52177 14.6047 8.57486C14.6047 8.57947 14.605 8.58396 14.605 8.58857C14.605 8.59069 14.6049 8.59288 14.6049 8.595C14.6048 8.64639 14.6032 8.69742 14.601 8.74827C14.6003 8.76428 14.5996 8.78028 14.5986 8.79623C14.5958 8.84537 14.5922 8.89428 14.5875 8.94283C14.5856 8.96161 14.5832 8.98033 14.581 8.99905C14.5774 9.03048 14.5734 9.06184 14.569 9.09302C14.5656 9.1173 14.5622 9.14163 14.5583 9.16579C14.5523 9.20259 14.5457 9.23915 14.5386 9.27559C14.5323 9.30801 14.5254 9.34032 14.5182 9.37257C14.5139 9.392 14.5094 9.41143 14.5047 9.43075C14.4932 9.47865 14.4806 9.52625 14.4671 9.57368C14.4617 9.59252 14.4567 9.61148 14.451 9.63014C14.4428 9.65731 14.434 9.68425 14.4252 9.71118C14.4181 9.73274 14.4108 9.75418 14.4033 9.77556C14.3948 9.79983 14.3864 9.82417 14.3774 9.84826C14.3621 9.88919 14.3461 9.92977 14.3294 9.96999C14.3219 9.98795 14.314 10.0057 14.3063 10.0236C14.2917 10.0571 14.2767 10.0904 14.2611 10.1234C14.2592 10.1273 14.2574 10.1312 14.2556 10.1351C14.25 10.1468 14.2444 10.1585 14.2387 10.1702C14.2212 10.2059 14.203 10.2412 14.1844 10.2761C14.1771 10.2897 14.1701 10.3035 14.1626 10.317C14.1621 10.3179 14.1617 10.3187 14.1612 10.3195C14.1408 10.3567 14.1194 10.3934 14.0978 10.4297C14.0891 10.4442 14.0806 10.4586 14.0718 10.4729C14.0482 10.5112 14.0239 10.5491 13.999 10.5864C13.9834 10.6096 13.9672 10.6324 13.9511 10.6552C13.9375 10.6746 13.9239 10.694 13.9099 10.7131C13.8918 10.7378 13.8733 10.7622 13.8545 10.7865C13.8417 10.803 13.8289 10.8193 13.8159 10.8356C13.796 10.8604 13.776 10.8851 13.7556 10.9094C13.7429 10.9245 13.7298 10.9392 13.7169 10.954C13.6956 10.9784 13.6744 11.0029 13.6526 11.0267C13.6396 11.0408 13.6261 11.0544 13.6129 11.0683C13.5773 11.1058 13.5409 11.1425 13.5038 11.1785C13.4818 11.1998 13.4599 11.2212 13.4373 11.2419C13.4217 11.2563 13.4057 11.2702 13.3898 11.2843C13.364 11.3073 13.3379 11.33 13.3114 11.3522C13.2979 11.3635 13.2844 11.3747 13.2707 11.3858C13.2386 11.4119 13.2062 11.4375 13.1731 11.4625C13.1642 11.4693 13.1553 11.4762 13.1463 11.483C12.5462 11.9291 11.8034 12.1935 10.9999 12.1935C10.1964 12.1935 9.45346 11.929 8.85338 11.4828C8.84452 11.4762 8.83584 11.4694 8.82704 11.4627C8.79391 11.4376 8.76124 11.4118 8.72905 11.3856C8.71553 11.3746 8.702 11.3635 8.68865 11.3523C8.66202 11.33 8.63591 11.3071 8.60992 11.2841C8.59415 11.27 8.57821 11.2562 8.56267 11.2419C8.54005 11.2211 8.51808 11.1997 8.49599 11.1784C8.45872 11.1423 8.42228 11.1055 8.38661 11.0679C8.37355 11.0541 8.3602 11.0407 8.34739 11.0267C8.32548 11.0029 8.30427 10.9784 8.28301 10.954C8.27007 10.9392 8.25708 10.9245 8.24438 10.9094C8.22389 10.8851 8.20392 10.8604 8.18408 10.8357C8.17108 10.8194 8.15815 10.803 8.14539 10.7865C8.12667 10.7623 8.10818 10.7379 8.09005 10.7132C8.07605 10.694 8.06241 10.6746 8.04877 10.6551C8.0327 10.6323 8.01652 10.6096 8.00104 10.5865C7.97594 10.549 7.95155 10.511 7.92786 10.4725C7.91918 10.4584 7.91079 10.4442 7.90229 10.4299C7.88026 10.393 7.8587 10.3559 7.83797 10.3182C7.83035 10.3043 7.82314 10.2902 7.81564 10.2762C7.79698 10.2412 7.77873 10.2058 7.76119 10.17C7.75493 10.1573 7.74884 10.1445 7.74276 10.1318C7.74181 10.1298 7.74093 10.1279 7.74004 10.1259C7.72368 10.0914 7.70803 10.0566 7.69273 10.0214C7.68547 10.0047 7.67808 9.98807 7.67112 9.97129C7.65399 9.93018 7.63763 9.88872 7.62197 9.84691C7.61353 9.82434 7.60573 9.80155 7.59776 9.77881C7.58955 9.75548 7.58163 9.73197 7.5739 9.7084C7.56557 9.68289 7.55718 9.65737 7.54939 9.63174C7.53775 9.59341 7.52677 9.55484 7.51643 9.51603C7.50916 9.48881 7.50261 9.46134 7.49593 9.43394C7.49074 9.41238 7.48572 9.39082 7.48093 9.36914C7.47503 9.34257 7.46906 9.31605 7.46375 9.28935C7.45554 9.24777 7.44803 9.20595 7.4413 9.1639C7.43764 9.14122 7.43445 9.11848 7.4312 9.0958C7.42642 9.06219 7.42211 9.02841 7.41827 8.99451C7.41638 8.97779 7.41419 8.96108 7.41248 8.94436C7.40758 8.89457 7.40385 8.84443 7.40102 8.79411C7.40019 8.77964 7.39954 8.76516 7.39889 8.75069C7.39647 8.69689 7.39476 8.6429 7.39476 8.58857C7.39476 8.53033 7.39641 8.47251 7.39919 8.41492C7.39996 8.39927 7.40126 8.38373 7.40214 8.36814C7.40474 8.32491 7.40787 8.28179 7.41201 8.23891C7.41342 8.22397 7.41514 8.20909 7.41673 8.1942C7.42181 8.14778 7.42754 8.10159 7.43439 8.0557C7.43569 8.04678 7.43699 8.0378 7.43841 8.02888C7.64235 6.72595 8.54649 5.65224 9.75262 5.20608ZM2.78087 6.59501C2.78087 4.60718 4.39807 2.98992 6.38596 2.98992C7.42329 2.98992 8.4032 3.44145 9.08072 4.20242C7.50792 4.88566 6.4178 6.36301 6.23984 8.08889C6.2386 8.10059 6.23771 8.11234 6.23659 8.12409C6.23068 8.18558 6.22602 8.2473 6.22247 8.30937C6.22141 8.32827 6.22023 8.34712 6.21934 8.36608C6.21598 8.43996 6.21367 8.51409 6.21367 8.58874C6.21367 8.66411 6.21586 8.7393 6.2194 8.81442C6.22082 8.84466 6.2233 8.87461 6.22525 8.90467C6.22814 8.94791 6.2311 8.99114 6.23511 9.03426C6.23866 9.07259 6.24303 9.11068 6.24752 9.14878C6.25142 9.18197 6.25555 9.21505 6.26016 9.24812C6.26618 9.29153 6.27268 9.33477 6.27982 9.37783C6.28414 9.4034 6.28886 9.42892 6.29353 9.45443C6.30239 9.50263 6.31142 9.5507 6.3217 9.59837C6.32513 9.61408 6.32902 9.62967 6.33257 9.64532C6.37267 9.82269 6.42246 9.99634 6.48176 10.1657C6.48554 10.1766 6.48885 10.1876 6.49269 10.1985C6.45707 10.1996 6.4214 10.2001 6.38584 10.2001C4.39808 10.2 2.78087 8.58284 2.78087 6.59501ZM5.60438 14.1256C5.59139 14.1461 5.57898 14.167 5.56622 14.1876C5.53923 14.2312 5.51248 14.2749 5.48661 14.319C5.47214 14.3436 5.4582 14.3684 5.44414 14.3932C5.42087 14.4342 5.39789 14.4752 5.37557 14.5166C5.36151 14.5427 5.34769 14.5688 5.33399 14.595C5.31249 14.6362 5.29152 14.6776 5.27097 14.7191C5.25803 14.7452 5.24516 14.7712 5.23264 14.7975C5.21173 14.8412 5.19159 14.8853 5.17168 14.9295C5.16087 14.9536 5.14977 14.9774 5.13932 15.0016C5.11628 15.0545 5.09431 15.1078 5.07275 15.1613C5.06643 15.177 5.0597 15.1925 5.05356 15.2081C5.02621 15.2776 5.00005 15.3476 4.97524 15.418C4.96957 15.4341 4.96449 15.4504 4.95888 15.4665C4.94021 15.5207 4.92202 15.5751 4.90484 15.6298C4.89698 15.6549 4.88972 15.6801 4.88216 15.7053C4.86828 15.7516 4.85463 15.7979 4.84182 15.8446C4.8342 15.8723 4.82693 15.9002 4.81967 15.928C4.80797 15.9728 4.79675 16.0177 4.78612 16.0628C4.77933 16.0913 4.77271 16.1198 4.76639 16.1484C4.75623 16.1941 4.74672 16.2399 4.73757 16.2858C4.73208 16.3134 4.72641 16.341 4.72127 16.3687C4.71199 16.4186 4.70367 16.4688 4.69558 16.5191C4.6918 16.5427 4.6876 16.5662 4.68406 16.5898C4.67307 16.6637 4.66309 16.7377 4.6547 16.812C4.65459 16.8129 4.65453 16.8138 4.65447 16.8147C4.64685 16.8823 4.64029 16.9501 4.6348 17.0181H1.18126V15.537C1.18126 13.5137 2.34445 11.6972 4.16678 10.8338C4.83065 11.1827 5.5853 11.3814 6.3859 11.3814C6.61743 11.3814 6.84967 11.3642 7.08013 11.3303C7.11604 11.3815 7.15254 11.4322 7.19034 11.4819C7.2031 11.4987 7.21633 11.515 7.22932 11.5315C7.26665 11.5792 7.30451 11.6264 7.34361 11.6727C7.35962 11.6916 7.37604 11.7102 7.39234 11.7289C7.42896 11.7709 7.46617 11.8125 7.5042 11.8532C7.52417 11.8746 7.54448 11.8957 7.5648 11.9168C7.59959 11.9526 7.63485 11.9879 7.6707 12.0227C7.68417 12.0358 7.69687 12.0496 7.71045 12.0625C7.65913 12.0935 7.60827 12.1253 7.55789 12.1577C7.54968 12.163 7.54165 12.1686 7.5335 12.1739C7.48312 12.2066 7.43327 12.24 7.38389 12.2741C7.36682 12.2859 7.34981 12.2978 7.3328 12.3098C7.2888 12.3408 7.24527 12.3723 7.2021 12.4044C7.18845 12.4146 7.17463 12.4245 7.16111 12.4348C7.10618 12.4763 7.0519 12.5186 6.99833 12.5618C6.98663 12.5713 6.97517 12.581 6.96348 12.5906C6.92084 12.6255 6.87861 12.661 6.83691 12.697C6.82072 12.7109 6.80466 12.725 6.78859 12.7391C6.74684 12.7759 6.70561 12.8132 6.6648 12.8511C6.65417 12.861 6.6433 12.8706 6.63273 12.8806C6.58264 12.9278 6.53332 12.9758 6.48471 13.0246C6.47208 13.0373 6.45973 13.0503 6.44721 13.063C6.41 13.101 6.3732 13.1394 6.33688 13.1783C6.32247 13.1938 6.30806 13.2092 6.29376 13.2249C6.25289 13.2696 6.21261 13.3148 6.17298 13.3607C6.16678 13.3679 6.16034 13.3749 6.15414 13.3821C6.10896 13.4349 6.06478 13.4886 6.02119 13.5429C6.00902 13.558 5.99715 13.5734 5.98516 13.5887C5.95238 13.6303 5.92007 13.6724 5.8883 13.7148C5.87601 13.7312 5.86367 13.7476 5.85156 13.7641C5.80998 13.8208 5.76893 13.878 5.72906 13.9361C5.68624 13.9986 5.64478 14.0619 5.60438 14.1256ZM5.79533 19.0118V18.1994V17.5308C5.79533 17.4652 5.79657 17.3999 5.79899 17.3347C5.79976 17.3133 5.80147 17.292 5.80254 17.2707C5.80466 17.2272 5.80667 17.1837 5.80986 17.1404C5.81181 17.1141 5.81476 17.088 5.81712 17.0618C5.82055 17.0237 5.82362 16.9854 5.82787 16.9475C5.831 16.9198 5.83508 16.8922 5.83862 16.8645C5.84323 16.8284 5.84754 16.7923 5.85286 16.7563C5.85717 16.7278 5.86237 16.6994 5.86709 16.6709C5.87288 16.6363 5.87825 16.6016 5.88475 16.5672C5.89024 16.538 5.89662 16.5092 5.90259 16.4802C5.90944 16.4468 5.916 16.4132 5.9235 16.3801C5.93011 16.3508 5.93767 16.3218 5.94476 16.2926C5.95273 16.2601 5.96035 16.2274 5.96892 16.1951C5.97671 16.1658 5.98534 16.1367 5.99361 16.1076C6.00258 16.0759 6.01132 16.0441 6.02089 16.0126C6.02981 15.9833 6.03962 15.9543 6.04901 15.9251C6.05905 15.8943 6.06879 15.8633 6.07936 15.8327C6.08941 15.8037 6.10021 15.7749 6.11073 15.7461C6.12183 15.7158 6.1327 15.6853 6.14433 15.6552C6.15544 15.6265 6.16725 15.5982 6.17877 15.5698C6.19088 15.5401 6.20281 15.5102 6.21545 15.4807C6.22767 15.4523 6.24055 15.4242 6.25325 15.3961C6.2663 15.3671 6.27923 15.3379 6.29282 15.3092C6.30611 15.2812 6.32005 15.2535 6.33381 15.2257C6.34787 15.1973 6.36175 15.1689 6.37628 15.1409C6.39063 15.1132 6.40557 15.0859 6.4204 15.0586C6.4354 15.0309 6.45022 15.0032 6.4657 14.9758C6.48105 14.9486 6.497 14.9218 6.51277 14.895C6.52872 14.8679 6.54455 14.8408 6.56102 14.814C6.57738 14.7874 6.59428 14.7611 6.61111 14.7348C6.628 14.7084 6.64478 14.682 6.66214 14.6559C6.6795 14.6298 6.69734 14.604 6.71518 14.5783C6.73296 14.5526 6.75068 14.5269 6.76887 14.5015C6.78718 14.476 6.80602 14.4508 6.82486 14.4256C6.84352 14.4006 6.86213 14.3756 6.88121 14.351C6.90046 14.3261 6.92019 14.3016 6.93991 14.2771C6.95946 14.2527 6.97907 14.2284 6.99904 14.2045C7.01918 14.1804 7.03973 14.1566 7.06029 14.1328C7.08078 14.1091 7.10133 14.0855 7.1223 14.0621C7.14327 14.0387 7.16471 14.0156 7.18609 13.9926C7.20747 13.9696 7.22885 13.9468 7.25065 13.9242C7.2725 13.9015 7.29477 13.8792 7.31709 13.8569C7.33936 13.8347 7.36174 13.8125 7.38442 13.7906C7.40704 13.7688 7.43002 13.7473 7.45311 13.7259C7.47627 13.7044 7.49954 13.6829 7.5231 13.6618C7.54661 13.6408 7.57035 13.62 7.59427 13.5994C7.61825 13.5787 7.64241 13.5581 7.6668 13.5378C7.69108 13.5176 7.71559 13.4977 7.74028 13.4779C7.76514 13.4579 7.79019 13.4381 7.81547 13.4186C7.84045 13.3993 7.86567 13.3803 7.89101 13.3614C7.91676 13.3422 7.94269 13.3232 7.96891 13.3045C7.99454 13.2861 8.02041 13.2681 8.04646 13.2501C8.07316 13.2318 8.09997 13.2136 8.12702 13.1957C8.15331 13.1784 8.17983 13.1612 8.20646 13.1442C8.23405 13.1267 8.26181 13.1094 8.28974 13.0924C8.31668 13.0759 8.34379 13.0597 8.37107 13.0438C8.39942 13.0272 8.42801 13.0108 8.45677 12.9947C8.48436 12.9792 8.51211 12.9639 8.54005 12.9489C8.56929 12.9332 8.59876 12.9178 8.62841 12.9025C8.65652 12.8881 8.68476 12.8738 8.71322 12.8598C8.73561 12.8488 8.75823 12.8382 8.78085 12.8275C9.44466 13.1765 10.1994 13.375 11 13.375C11.8006 13.375 12.5553 13.1765 13.2191 12.8275C13.2415 12.8382 13.264 12.8487 13.2862 12.8596C13.315 12.8738 13.3435 12.8882 13.372 12.9028C13.4013 12.9178 13.4305 12.9331 13.4594 12.9486C13.4876 12.9638 13.5157 12.9793 13.5436 12.9949C13.572 13.0109 13.6002 13.027 13.6282 13.0434C13.6559 13.0596 13.6834 13.0761 13.7107 13.0927C13.7383 13.1096 13.7656 13.1266 13.7928 13.1439C13.8198 13.1611 13.8466 13.1784 13.8733 13.1961C13.9 13.2137 13.9265 13.2317 13.9529 13.2498C13.9792 13.268 14.0053 13.2862 14.0313 13.3048C14.0572 13.3233 14.0828 13.3421 14.1083 13.3611C14.134 13.3801 14.1594 13.3993 14.1847 13.4188C14.2097 13.4382 14.2345 13.4578 14.2592 13.4776C14.284 13.4975 14.3087 13.5175 14.3331 13.5378C14.3574 13.558 14.3814 13.5785 14.4053 13.5991C14.4293 13.6199 14.4532 13.6407 14.4768 13.6619C14.5002 13.6829 14.5233 13.7041 14.5463 13.7255C14.5696 13.7471 14.5928 13.7688 14.6156 13.7908C14.6381 13.8125 14.6603 13.8345 14.6823 13.8565C14.7048 13.879 14.7272 13.9015 14.7492 13.9243C14.7709 13.9467 14.7922 13.9694 14.8134 13.9922C14.835 14.0154 14.8566 14.0387 14.8777 14.0622C14.8985 14.0854 14.9189 14.1088 14.9392 14.1323C14.9599 14.1563 14.9806 14.1802 15.0009 14.2046C15.0208 14.2284 15.0402 14.2525 15.0597 14.2767C15.0795 14.3014 15.0994 14.326 15.1187 14.3511C15.1378 14.3756 15.1562 14.4004 15.1748 14.4253C15.1937 14.4506 15.2126 14.4759 15.231 14.5016C15.2491 14.5268 15.2668 14.5524 15.2845 14.578C15.3024 14.6038 15.3203 14.6297 15.3377 14.6559C15.355 14.6819 15.3716 14.7081 15.3884 14.7343C15.4054 14.7608 15.4224 14.7873 15.4389 14.8141C15.4552 14.8406 15.4709 14.8676 15.4867 14.8944C15.5026 14.9214 15.5187 14.9484 15.5341 14.9758C15.5495 15.0031 15.5643 15.0307 15.5793 15.0582C15.5941 15.0857 15.6091 15.1131 15.6235 15.1408C15.638 15.1688 15.6518 15.1972 15.6659 15.2255C15.6797 15.2533 15.6937 15.2811 15.7069 15.3092C15.7205 15.3379 15.7334 15.3669 15.7464 15.3958C15.7592 15.4241 15.7721 15.4522 15.7843 15.4808C15.7969 15.51 15.8087 15.5396 15.8207 15.5691C15.8324 15.5978 15.8443 15.6264 15.8555 15.6553C15.8671 15.6853 15.8779 15.7156 15.8889 15.7458C15.8995 15.7747 15.9103 15.8035 15.9203 15.8326C15.931 15.8634 15.9408 15.8945 15.9508 15.9255C15.9602 15.9545 15.97 15.9834 15.9788 16.0126C15.9884 16.0441 15.9971 16.0759 16.0062 16.1077C16.0144 16.1368 16.0231 16.1658 16.0308 16.1951C16.0394 16.2274 16.047 16.26 16.055 16.2926C16.0622 16.3217 16.0697 16.3508 16.0763 16.3801C16.0838 16.4132 16.0903 16.4467 16.0972 16.4801C16.1031 16.5091 16.1095 16.538 16.115 16.5672C16.1215 16.6013 16.1268 16.6357 16.1326 16.6701C16.1373 16.6989 16.1427 16.7275 16.147 16.7564C16.1523 16.792 16.1565 16.8279 16.1611 16.8637C16.1647 16.8917 16.1689 16.9194 16.172 16.9475C16.1763 16.9854 16.1793 17.0236 16.1828 17.0618C16.1851 17.088 16.1881 17.114 16.19 17.1403C16.1933 17.1836 16.1952 17.2272 16.1973 17.2707C16.1984 17.292 16.2001 17.3133 16.2009 17.3347C16.2033 17.3998 16.2046 17.4652 16.2046 17.5307V18.1993V19.0118H5.79533ZM17.3654 17.0181C17.3539 16.8742 17.3372 16.7312 17.3161 16.5891C17.3127 16.5666 17.3087 16.5442 17.3051 16.5218C17.2969 16.4704 17.2883 16.419 17.2788 16.3679C17.2738 16.341 17.2683 16.3141 17.2629 16.2873C17.2536 16.2405 17.2439 16.1939 17.2336 16.1475C17.2273 16.1195 17.2208 16.0915 17.2142 16.0637C17.2034 16.0181 17.1921 15.9726 17.1803 15.9273C17.1731 15.8999 17.166 15.8725 17.1584 15.8451C17.1455 15.7979 17.1317 15.751 17.1176 15.7042C17.1102 15.6795 17.1031 15.6548 17.0953 15.6301C17.0779 15.5747 17.0595 15.5195 17.0405 15.4645C17.0352 15.4491 17.0304 15.4336 17.0249 15.4182C17 15.3476 16.9739 15.2775 16.9464 15.2077C16.9405 15.1928 16.934 15.178 16.928 15.1631C16.9062 15.1089 16.8839 15.0549 16.8606 15.0012C16.8502 14.9774 16.8393 14.9539 16.8287 14.9302C16.8086 14.8856 16.7883 14.8411 16.7671 14.7969C16.7548 14.7711 16.742 14.7454 16.7293 14.7197C16.7086 14.6777 16.6874 14.636 16.6657 14.5945C16.6521 14.5685 16.6385 14.5426 16.6245 14.5168C16.6021 14.4753 16.5791 14.434 16.5557 14.3929C16.5416 14.3682 16.5277 14.3436 16.5134 14.319C16.4874 14.2747 16.4605 14.2308 16.4334 14.187C16.4207 14.1665 16.4084 14.1459 16.3956 14.1257C16.3551 14.0619 16.3136 13.9987 16.2708 13.9361C16.2308 13.8779 16.1898 13.8207 16.1482 13.764C16.1362 13.7476 16.1239 13.7314 16.1117 13.7151C16.0798 13.6724 16.0473 13.6302 16.0144 13.5884C16.0026 13.5733 15.9908 13.5581 15.9788 13.5431C15.9351 13.4887 15.8907 13.4348 15.8454 13.382C15.8395 13.3751 15.8335 13.3684 15.8276 13.3616C15.7876 13.3153 15.747 13.2697 15.7058 13.2247C15.6916 13.2093 15.6774 13.194 15.6631 13.1786C15.6266 13.1394 15.5896 13.1008 15.5521 13.0626C15.5398 13.05 15.5277 13.0373 15.5152 13.0249C15.4665 12.976 15.417 12.9278 15.3668 12.8805C15.3565 12.8708 15.3458 12.8613 15.3354 12.8516C15.2944 12.8135 15.2529 12.776 15.211 12.739C15.195 12.725 15.179 12.7111 15.1629 12.6971C15.1211 12.661 15.0789 12.6255 15.0362 12.5906C15.0245 12.5811 15.0131 12.5713 15.0014 12.5619C14.9479 12.5186 14.8936 12.4763 14.8388 12.4349C14.8251 12.4245 14.8111 12.4145 14.7974 12.4043C14.7544 12.3724 14.7111 12.341 14.6673 12.3101C14.6501 12.298 14.6329 12.286 14.6156 12.274C14.5667 12.2403 14.5174 12.2072 14.4676 12.1749C14.4588 12.1692 14.4503 12.1633 14.4415 12.1577C14.3912 12.1254 14.3405 12.0937 14.2893 12.0627C14.3025 12.0501 14.3149 12.0367 14.3279 12.024C14.3646 11.9885 14.4005 11.9525 14.436 11.9159C14.4558 11.8955 14.4754 11.875 14.4948 11.8542C14.5335 11.8128 14.5712 11.7706 14.6084 11.7279C14.6242 11.7098 14.6401 11.6918 14.6556 11.6734C14.6953 11.6265 14.7338 11.5786 14.7716 11.5301C14.784 11.5143 14.7967 11.4987 14.8089 11.4827C14.8469 11.4327 14.8835 11.3818 14.9196 11.3305C15.1501 11.3643 15.3823 11.3814 15.6139 11.3814C16.4145 11.3814 17.1692 11.1829 17.833 10.8338C19.6554 11.6972 20.8185 13.5137 20.8185 15.5371V17.0181H17.3654Z" fill="#705FF5"/>
</svg>
