<svg width="15" height="15" viewBox="0 0 15 15" fill="none" xmlns="http://www.w3.org/2000/svg">
<path fill-rule="evenodd" clip-rule="evenodd" d="M7.5 15C11.6421 15 15 11.6421 15 7.5C15 3.35786 11.6421 0 7.5 0C3.35786 0 0 3.35786 0 7.5C0 11.6421 3.35786 15 7.5 15ZM6.81367 9.48633H8.03828L8.17891 3.46875H6.67891L6.81367 9.48633ZM6.85469 10.7754C6.71016 10.9199 6.63789 11.1035 6.63789 11.3262C6.63789 11.541 6.7082 11.7207 6.84883 11.8652C6.98945 12.0098 7.18867 12.082 7.44648 12.082C7.7043 12.082 7.90352 12.0098 8.04414 11.8652C8.18477 11.7207 8.25508 11.541 8.25508 11.3262C8.25508 11.1035 8.18281 10.9199 8.03828 10.7754C7.89375 10.627 7.69648 10.5527 7.44648 10.5527C7.19648 10.5527 6.99922 10.627 6.85469 10.7754Z" fill="#EC4179"/>
</svg>
