<svg width="22" height="22" viewBox="0 0 22 22" fill="none" xmlns="http://www.w3.org/2000/svg">
<g clip-path="url(#clip0)">
<path d="M21.775 10.4342L16.6875 5.04413C16.3748 4.71249 15.8529 4.69737 15.5212 5.01031C15.1901 5.323 15.1747 5.8452 15.4877 6.17658L20.0409 11.0001L15.4877 15.8242C15.1747 16.1556 15.1901 16.6775 15.5212 16.9905C15.6807 17.1409 15.8845 17.2154 16.0875 17.2154C16.3067 17.2154 16.5255 17.1285 16.6875 16.9572L21.7751 11.5669C22.075 11.2487 22.075 10.752 21.775 10.4342Z" fill="#705FF5"/>
<path d="M6.51317 15.824L1.96026 11.0002L6.51317 6.17638C6.82585 5.84501 6.81073 5.32276 6.47935 5.01012C6.14823 4.69743 5.62573 4.71256 5.31309 5.04394L0.225556 10.434C-0.0744531 10.7519 -0.0744531 11.2488 0.225556 11.5667L5.31334 16.957C5.47559 17.1289 5.69422 17.2155 5.91341 17.2155C6.11635 17.2155 6.32015 17.1407 6.47935 16.9903C6.81103 16.6776 6.82585 16.1554 6.51317 15.824Z" fill="#705FF5"/>
<path d="M12.3347 2.26333C11.8845 2.19514 11.4632 2.50422 11.3945 2.9544L8.97447 18.7945C8.90572 19.2449 9.21509 19.666 9.66554 19.7347C9.70791 19.7411 9.74967 19.7441 9.79122 19.7441C10.1919 19.7441 10.5434 19.4518 10.6058 19.0437L13.0258 3.20358C13.0946 2.75309 12.7852 2.33208 12.3347 2.26333Z" fill="#705FF5"/>
</g>
<defs>
<clipPath id="clip0">
<rect width="22" height="22" fill="white"/>
</clipPath>
</defs>
</svg>
