<svg width="553" height="81" viewBox="0 0 553 81" fill="none" xmlns="http://www.w3.org/2000/svg">
<path d="M119.163 64.4561C115.172 64.4561 111.562 63.5819 108.331 61.8337C105.139 60.0474 102.63 57.615 100.806 54.5366C98.9819 51.4201 98.0698 47.9236 98.0698 44.047C98.0698 40.1704 98.9819 36.6929 100.806 33.6144C102.63 30.4979 105.158 28.0656 108.388 26.3173C111.619 24.531 115.229 23.6379 119.22 23.6379C122.336 23.6379 125.187 24.17 127.771 25.2341C130.356 26.2603 132.56 27.7995 134.384 29.8518L130.679 33.4434C127.676 30.2889 123.933 28.7117 119.448 28.7117C116.484 28.7117 113.804 29.3768 111.41 30.707C109.015 32.0372 107.134 33.8804 105.766 36.2368C104.436 38.5551 103.771 41.1585 103.771 44.047C103.771 46.9354 104.436 49.5578 105.766 51.9142C107.134 54.2325 109.015 56.0568 111.41 57.387C113.804 58.7172 116.484 59.3823 119.448 59.3823C123.895 59.3823 127.638 57.7861 130.679 54.5936L134.384 58.1851C132.56 60.2374 130.337 61.7957 127.714 62.8598C125.13 63.924 122.279 64.4561 119.163 64.4561ZM160.267 64.4561C156.238 64.4561 152.608 63.5819 149.378 61.8337C146.148 60.0474 143.601 57.596 141.739 54.4796C139.915 51.3631 139.002 47.8856 139.002 44.047C139.002 40.2084 139.915 36.7309 141.739 33.6144C143.601 30.4979 146.148 28.0656 149.378 26.3173C152.608 24.531 156.238 23.6379 160.267 23.6379C164.257 23.6379 167.868 24.531 171.098 26.3173C174.329 28.0656 176.856 30.4979 178.68 33.6144C180.505 36.6929 181.417 40.1704 181.417 44.047C181.417 47.9236 180.505 51.4201 178.68 54.5366C176.856 57.615 174.329 60.0474 171.098 61.8337C167.868 63.5819 164.257 64.4561 160.267 64.4561ZM160.267 59.3823C163.193 59.3823 165.815 58.7172 168.134 57.387C170.49 56.0568 172.333 54.2325 173.664 51.9142C175.032 49.5578 175.716 46.9354 175.716 44.047C175.716 41.1585 175.032 38.5551 173.664 36.2368C172.333 33.8804 170.49 32.0372 168.134 30.707C165.815 29.3768 163.193 28.7117 160.267 28.7117C157.34 28.7117 154.68 29.3768 152.285 30.707C149.929 32.0372 148.067 33.8804 146.699 36.2368C145.368 38.5551 144.703 41.1585 144.703 44.047C144.703 46.9354 145.368 49.5578 146.699 51.9142C148.067 54.2325 149.929 56.0568 152.285 57.387C154.68 58.7172 157.34 59.3823 160.267 59.3823ZM190.7 24.094H207.518C211.737 24.094 215.48 24.9301 218.749 26.6023C222.017 28.2746 224.544 30.6309 226.331 33.6714C228.155 36.6739 229.067 40.1324 229.067 44.047C229.067 47.9616 228.155 51.4391 226.331 54.4796C224.544 57.482 222.017 59.8194 218.749 61.4916C215.48 63.1639 211.737 64 207.518 64H190.7V24.094ZM207.176 59.0402C210.406 59.0402 213.238 58.4132 215.67 57.159C218.141 55.9048 220.041 54.1565 221.371 51.9142C222.701 49.6338 223.366 47.0114 223.366 44.047C223.366 41.0825 222.701 38.4791 221.371 36.2368C220.041 33.9564 218.141 32.1892 215.67 30.935C213.238 29.6808 210.406 29.0537 207.176 29.0537H196.401V59.0402H207.176ZM267.33 59.0402V64H238.369V24.094H266.532V29.0537H244.07V41.3106H264.08V46.1563H244.07V59.0402H267.33ZM283.06 34.5265H271.373V24.094H308.2V34.5265H296.514V64H283.06V34.5265ZM329.368 53.9665H325.719V64H312.265V24.094H331.477C335.164 24.094 338.375 24.702 341.111 25.9182C343.848 27.1344 345.957 28.8827 347.439 31.163C348.922 33.4434 349.663 36.1038 349.663 39.1442C349.663 41.9947 349.017 44.484 347.724 46.6124C346.432 48.7407 344.57 50.4319 342.138 51.6861L350.518 64H336.152L329.368 53.9665ZM336.095 39.1442C336.095 37.662 335.639 36.5218 334.726 35.7237C333.814 34.8876 332.446 34.4695 330.622 34.4695H325.719V43.8189H330.622C332.446 43.8189 333.814 43.4199 334.726 42.6218C335.639 41.7856 336.095 40.6265 336.095 39.1442ZM382.506 57.0449H367.342L364.663 64H350.981L368.425 24.094H381.651L399.096 64H385.186L382.506 57.0449ZM378.801 47.3535L374.924 37.32L371.048 47.3535H378.801ZM401.813 24.094H415.267V64H401.813V24.094ZM461.65 24.094V64H450.59L435.426 45.8713V64H422.314V24.094H433.374L448.538 42.2227V24.094H461.65ZM500.399 59.0402V64H471.439V24.094H499.601V29.0537H477.14V41.3106H497.15V46.1563H477.14V59.0402H500.399ZM536.88 64L528.272 51.7431C527.208 51.8192 526.372 51.8572 525.764 51.8572H515.901V64H510.2V24.094H525.764C530.932 24.094 534.999 25.3291 537.964 27.7995C540.928 30.2699 542.41 33.6714 542.41 38.0041C542.41 41.0825 541.65 43.7049 540.13 45.8713C538.61 48.0376 536.443 49.6148 533.631 50.603L543.094 64H536.88ZM525.593 47.0114C529.203 47.0114 531.959 46.2323 533.859 44.6741C535.759 43.1158 536.709 40.8925 536.709 38.0041C536.709 35.1156 535.759 32.9113 533.859 31.3911C531.959 29.8328 529.203 29.0537 525.593 29.0537H515.901V47.0114H525.593Z" fill="white"/>
<g clip-path="url(#clip0)">
<path d="M77.6224 59.956H61.1838C61.3553 59.4725 61.4495 58.953 61.4495 58.4113V56.8667H69.0779C74.5972 56.8667 79.0874 52.3766 79.0874 46.8572C79.0874 44.1836 78.0463 41.6699 76.1558 39.7793L75.1597 38.7833L66.5097 30.1332C66.5095 30.1331 66.5093 30.1329 66.509 30.1328L62.1021 25.7259C57.0823 20.7061 50.4082 17.9414 43.3089 17.9414H1.54566C0.692603 17.9414 0.000976562 18.633 0.000976562 19.4861C0.000976562 20.339 0.692448 21.0308 1.54566 21.0308H43.3089C49.5828 21.0308 55.4812 23.4739 59.9175 27.9104L61.6879 29.6808H43.8889C40.6523 29.6808 38.0192 32.314 38.0192 35.5504C38.0192 38.7868 40.6525 41.42 43.8889 41.42H73.4275L73.9713 41.9639C75.2781 43.2709 75.9982 45.0087 75.9982 46.8572C75.9982 50.673 72.8937 53.7775 69.0779 53.7775H59.9048H53.7262H16.1451H9.96655H1.54566C0.692603 53.7775 0.000976562 54.4691 0.000976562 55.3221C0.000976562 56.175 0.692448 56.8668 1.54566 56.8668H8.42187V58.4115C8.42187 58.953 8.51603 59.4727 8.68751 59.9562H1.62529C0.772233 59.9562 0.0806071 60.6478 0.0806071 61.5009C0.0806071 62.3537 0.772079 63.0455 1.62529 63.0455H27.5756C28.4286 63.0455 29.1202 62.3539 29.1202 61.5009C29.1202 60.648 28.4288 59.9562 27.5756 59.9562H17.4241C17.5956 59.4727 17.6898 58.9531 17.6898 58.4115V56.8668H52.1816V58.4115C52.1816 58.953 52.2757 59.4727 52.4472 59.9562H39.6307C38.7777 59.9562 38.086 60.6478 38.086 61.5009C38.086 62.3537 38.7775 63.0455 39.6307 63.0455H77.6224C78.4754 63.0455 79.1671 62.3539 79.1671 61.5009C79.1671 60.6478 78.4756 59.956 77.6224 59.956ZM43.8889 38.3308C42.3558 38.3308 41.1084 37.0835 41.1084 35.5504C41.1084 34.0173 42.3558 32.77 43.8889 32.77H64.7774L70.3381 38.3307H43.8889V38.3308ZM14.6004 58.4113C14.6004 59.263 13.9076 59.956 13.0557 59.956C12.2041 59.956 11.5111 59.2632 11.5111 58.4113V56.8667H14.6004V58.4113ZM58.3603 58.4113C58.3603 59.263 57.6674 59.956 56.8156 59.956C55.9639 59.956 55.2709 59.2632 55.2709 58.4113V56.8667H58.3603V58.4113Z" fill="white"/>
<path d="M34.691 60.4194C34.4037 60.1321 34.0052 59.9668 33.5989 59.9668C33.1927 59.9668 32.7941 60.1319 32.5068 60.4194C32.2195 60.7067 32.0542 61.1051 32.0542 61.5115C32.0542 61.9178 32.2195 62.3163 32.5068 62.6034C32.7941 62.8907 33.1925 63.0561 33.5989 63.0561C34.0051 63.0561 34.4037 62.8909 34.691 62.6034C34.9783 62.3163 35.1436 61.9177 35.1436 61.5115C35.1436 61.1053 34.9783 60.7067 34.691 60.4194Z" fill="white"/>
<path d="M25.6423 29.6914H7.44357C6.59052 29.6914 5.89889 30.383 5.89889 31.2361C5.89889 32.089 6.59036 32.7808 7.44357 32.7808H25.6423C27.1754 32.7808 28.4227 34.0281 28.4227 35.5612C28.4227 37.0943 27.1754 38.3416 25.6422 38.3416H1.54565C0.692603 38.3416 0.000976562 39.0332 0.000976562 39.8863C0.000976562 40.7393 0.692448 41.431 1.54565 41.431H25.6423C28.8789 41.431 31.5119 38.7977 31.5119 35.5613C31.5119 32.3249 28.8787 29.6914 25.6423 29.6914Z" fill="white"/>
<path d="M2.63678 30.144C2.34949 29.8565 1.95257 29.6914 1.54468 29.6914C1.13848 29.6914 0.739868 29.8565 0.45258 30.144C0.165291 30.4313 0 30.8297 0 31.2359C0 31.6421 0.165291 32.0407 0.45258 32.3279C0.739868 32.6152 1.13848 32.7806 1.54468 32.7806C1.95242 32.7806 2.34949 32.6153 2.63678 32.3279C2.92561 32.0407 3.08936 31.6421 3.08936 31.2359C3.08936 30.8297 2.92561 30.4313 2.63678 30.144Z" fill="white"/>
</g>
<defs>
<clipPath id="clip0">
<rect width="79.1667" height="79.1667" fill="white" transform="translate(0 0.916016)"/>
</clipPath>
</defs>
</svg>
