<svg width="305" height="306" viewBox="0 0 305 306" fill="#e4e2fd" xmlns="http://www.w3.org/2000/svg">
<path d="M304.977 162.563C304.228 168.048 303.777 173.592 302.686 179.01C290.803 238.3 256.075 277.902 199.242 298.093C184.574 303.304 169.21 305.293 153.642 305.393C147.833 305.433 143.774 301.837 143.671 296.643C143.565 291.343 147.591 287.643 153.597 287.531C210.144 286.457 257.877 253.176 278.43 200.493C298.363 149.402 283.156 88.3579 241.723 52.3669C221.582 34.8669 198.538 23.422 172.098 20.05C122.226 13.692 80.7059 29.9861 48.2759 68.3821C31.2039 88.5951 21.5559 112.34 18.8669 138.635C15.3449 173.068 23.7189 204.487 44.1379 232.573C44.4619 233.018 44.8709 233.403 45.5949 234.213C46.7779 227.546 47.8869 221.339 48.9809 215.129C50.9399 204.007 52.7739 192.862 54.9389 181.781C55.4123 179.378 56.55 177.155 58.2229 175.366C96.3649 137.058 134.574 98.8168 172.849 60.6421C177.249 56.2421 182.336 56.2481 186.718 60.6211C206.165 80.0304 225.595 99.4566 245.008 118.9C249.376 123.275 249.393 128.369 244.994 132.771C206.782 171.01 168.535 209.212 130.252 247.379C128.472 249.07 126.247 250.218 123.838 250.688C100.545 254.938 77.2119 258.967 53.8959 263.088C52.0505 263.484 50.1325 263.378 48.3423 262.78C46.5521 262.182 44.9553 261.114 43.7189 259.688C12.1769 226.57 -2.4951 187.205 0.737904 141.588C3.07074 109.144 15.7721 78.3096 36.9674 53.6355C58.1627 28.9614 86.7289 11.7551 118.45 4.55591C125.666 2.90191 133.121 2.29396 140.463 1.18896C141.336 1.05796 142.198 0.849025 143.063 0.676025H162.11C162.874 0.842025 163.633 1.04797 164.404 1.16797C172.226 2.38197 180.159 3.10404 187.855 4.86304C246.548 18.279 292.72 67.3961 302.666 126.777C303.596 132.331 304.214 137.937 304.977 143.519V162.563ZM180.025 79.925L77.1569 182.756C82.3919 188.027 87.9069 193.578 93.1939 198.902C127.565 164.534 161.869 130.234 196.108 96.002L180.025 79.925ZM209.74 109.249L106.755 212.2L123.004 228.419L225.943 125.5L209.74 109.249ZM62.1329 243.5L103.854 236.173L69.4439 201.73C67.0639 215.322 64.6379 229.18 62.1329 243.5Z"/>
</svg>
