<svg width="20" height="20" viewBox="0 0 20 20" fill="none" xmlns="http://www.w3.org/2000/svg">
<path d="M0.05 14.1684C0.05 12.7107 1.23609 11.5246 2.69383 11.5246C4.15161 11.5246 5.3377 12.7107 5.3377 14.1684V17.3051C5.3377 18.7629 4.15164 19.949 2.69387 19.949C1.23609 19.949 0.05 18.7629 0.05 17.3051V14.1684ZM2.69383 18.4865C3.34527 18.4865 3.87516 17.9565 3.87516 17.3051V14.1684C3.8752 13.517 3.34531 12.9871 2.69387 12.9871C2.04243 12.9871 1.5125 13.517 1.5125 14.1684V17.3051C1.5125 17.9565 2.04242 18.4865 2.69383 18.4865Z" fill="#705FF5" stroke="#FAFBFF" stroke-width="0.1"/>
<path d="M7.35615 2.69387C7.35615 1.23609 8.54224 0.05 10 0.05C11.4578 0.05 12.6439 1.23609 12.6439 2.69387V17.3061C12.6439 18.7639 11.4578 19.95 10 19.95C8.54224 19.95 7.35615 18.7639 7.35615 17.3061V2.69387ZM10 18.4875C10.6515 18.4875 11.1814 17.9576 11.1814 17.3061V2.69387C11.1814 2.04238 10.6515 1.5125 10 1.5125C9.34857 1.5125 8.81865 2.04238 8.81865 2.69387V17.3061C8.81865 17.9576 9.34857 18.4875 10 18.4875Z" fill="#705FF5" stroke="#FAFBFF" stroke-width="0.1"/>
<path d="M14.6622 8.4302C14.6622 6.97242 15.8483 5.78633 17.306 5.78633C18.7638 5.78633 19.9499 6.97242 19.9499 8.4302V17.3047C19.9499 18.7624 18.7638 19.9485 17.3061 19.9485C15.8483 19.9485 14.6622 18.7624 14.6622 17.3046V8.4302ZM17.306 18.4861C17.9575 18.4861 18.4874 17.9561 18.4874 17.3047V8.4302C18.4874 7.77871 17.9575 7.24883 17.3061 7.24883C16.6546 7.24883 16.1247 7.77871 16.1247 8.4302V17.3047C16.1247 17.9561 16.6546 18.4861 17.306 18.4861Z" fill="#705FF5" stroke="#FAFBFF" stroke-width="0.1"/>
</svg>
