<svg width="24" height="24" viewBox="0 0 24 24" fill="none" xmlns="http://www.w3.org/2000/svg">
<path d="M3.23259 13.7695C1.45017 13.7695 0 15.2197 0 17.0021V20.7661C0 22.5486 1.45017 23.9988 3.23264 23.9988C5.01511 23.9988 6.46523 22.5486 6.46523 20.7661V17.0021C6.46523 15.2197 5.01506 13.7695 3.23259 13.7695ZM4.59019 20.7661C4.59019 21.5147 3.98119 22.1238 3.23259 22.1238C2.48405 22.1238 1.875 21.5147 1.875 20.7661V17.0021C1.875 16.2535 2.48405 15.6445 3.23264 15.6445C3.98123 15.6445 4.59023 16.2536 4.59019 17.0021V20.7661Z" fill="#705FF5"/>
<path d="M12.0001 0C10.2176 0 8.76746 1.45017 8.76746 3.23264V20.7674C8.76746 22.5498 10.2176 24 12.0001 24C13.7826 24 15.2327 22.5498 15.2327 20.7674V3.23264C15.2327 1.45017 13.7826 0 12.0001 0ZM13.3577 20.7674C13.3577 21.516 12.7487 22.125 12.0001 22.125C11.2515 22.125 10.6425 21.516 10.6425 20.7674V3.23264C10.6425 2.484 11.2515 1.875 12.0001 1.875C12.7487 1.875 13.3577 2.484 13.3577 3.23264V20.7674Z" fill="#705FF5"/>
<path d="M20.7673 6.88477C18.9848 6.88477 17.5347 8.33494 17.5347 10.1174V20.7667C17.5347 22.5492 18.9848 23.9994 20.7673 23.9994C22.5498 23.9994 23.9999 22.5492 23.9999 20.7668V10.1174C23.9999 8.33494 22.5498 6.88477 20.7673 6.88477ZM22.1249 20.7668C22.1249 21.5154 21.5159 22.1244 20.7673 22.1244C20.0187 22.1244 19.4097 21.5154 19.4097 20.7668V10.1174C19.4097 9.36877 20.0187 8.75977 20.7673 8.75977C21.5159 8.75977 22.1249 9.36877 22.1249 10.1174V20.7668Z" fill="#705FF5"/>
</svg>
