<svg width="20" height="20" viewBox="0 0 20 20" fill="none" xmlns="http://www.w3.org/2000/svg">
<g clip-path="url(#clip0)">
<path d="M18.3814 5.14964C18.3712 4.60966 18.3614 4.09956 18.3614 3.60607C18.3614 3.21945 18.048 2.90602 17.6613 2.90602C14.6674 2.90602 12.388 2.04561 10.4879 0.19822C10.2161 -0.0661198 9.78358 -0.0660265 9.51186 0.19822C7.61202 2.04561 5.33293 2.90602 2.33923 2.90602C1.95262 2.90602 1.63918 3.21945 1.63918 3.60607C1.63918 4.09965 1.62947 4.60994 1.61911 5.15001C1.52316 10.1751 1.39174 17.0571 9.7706 19.9614C9.8449 19.9872 9.92237 20.0001 9.99985 20.0001C10.0773 20.0001 10.1549 19.9872 10.2291 19.9614C18.6086 17.057 18.4774 10.1748 18.3814 5.14964ZM9.99994 18.5571C2.81396 15.9467 2.92261 10.2282 3.01903 5.1767C3.02482 4.87354 3.03042 4.5797 3.03434 4.29165C5.83827 4.1733 8.08049 3.32362 9.99994 1.65153C11.9196 3.32362 14.1622 4.17339 16.9663 4.29165C16.9702 4.57961 16.9758 4.87326 16.9816 5.17624C17.0779 10.2279 17.1865 15.9466 9.99994 18.5571Z" fill="#705FF5"/>
<path d="M12.4106 7.56828L9.0318 10.9469L7.58997 9.50509C7.31658 9.23179 6.8733 9.23179 6.6 9.50509C6.32661 9.77857 6.32661 10.2218 6.6 10.4951L8.53681 12.432C8.67346 12.5686 8.85268 12.6369 9.0318 12.6369C9.21092 12.6369 9.39013 12.5686 9.52678 12.432L13.4005 8.55834C13.674 8.28495 13.674 7.84167 13.4006 7.56837C13.1273 7.29498 12.684 7.29489 12.4106 7.56828Z" fill="#705FF5"/>
</g>
<defs>
<clipPath id="clip0">
<rect width="20" height="20" fill="white" transform="translate(0.000305176)"/>
</clipPath>
</defs>
</svg>
