<svg width="25" height="25" viewBox="0 0 25 25" fill="none" xmlns="http://www.w3.org/2000/svg">
  <mask id="path-1-inside-1" fill="white">
    <path d="M24.5405 8.89945C24.2547 8.57878 23.8643 8.37021 23.4389 8.31099V8.3101L16.7947 7.39228L14.1654 1.10968C13.7815 0.190078 12.7248 -0.244166 11.8052 0.139754C11.3669 0.322795 11.0183 0.671299 10.8353 1.10968L8.20605 7.39228L1.56187 8.3101C0.571961 8.44789 -0.118823 9.36215 0.0189678 10.3521C0.0781853 10.7775 0.286755 11.1679 0.607429 11.4537L5.61335 15.9176L4.58479 22.9224C4.47336 23.6337 4.80005 24.3424 5.41331 24.7196C6.01793 25.1063 6.79566 25.0918 7.38548 24.683L12.5003 21.2047L17.6152 24.6866C18.4405 25.2467 19.5637 25.0318 20.1239 24.2065C20.3785 23.8314 20.4827 23.3743 20.4159 22.926L19.3874 15.9185L24.3933 11.4545C25.1395 10.7896 25.2054 9.64563 24.5405 8.89945ZM17.8393 14.9096C17.6153 15.1097 17.507 15.4089 17.5509 15.706L18.6222 23.2055L13.0048 19.3861C12.7019 19.1803 12.3041 19.1803 12.0013 19.3861L6.35075 23.1823L7.44978 15.7025C7.49246 15.4066 7.38418 15.109 7.16138 14.9097L1.8046 10.0814L8.95412 9.09484C9.26716 9.05168 9.534 8.84625 9.65584 8.55471L12.511 1.78555C12.5142 1.78953 12.5166 1.79408 12.5182 1.79894L15.3439 8.55116C15.4657 8.84269 15.7326 9.04812 16.0456 9.09128L23.204 10.1216L17.8393 14.9096Z" />
  </mask>
  <path d="M24.5405 8.89945C24.2547 8.57878 23.8643 8.37021 23.4389 8.31099V8.3101L16.7947 7.39228L14.1654 1.10968C13.7815 0.190078 12.7248 -0.244166 11.8052 0.139754C11.3669 0.322795 11.0183 0.671299 10.8353 1.10968L8.20605 7.39228L1.56187 8.3101C0.571961 8.44789 -0.118823 9.36215 0.0189678 10.3521C0.0781853 10.7775 0.286755 11.1679 0.607429 11.4537L5.61335 15.9176L4.58479 22.9224C4.47336 23.6337 4.80005 24.3424 5.41331 24.7196C6.01793 25.1063 6.79566 25.0918 7.38548 24.683L12.5003 21.2047L17.6152 24.6866C18.4405 25.2467 19.5637 25.0318 20.1239 24.2065C20.3785 23.8314 20.4827 23.3743 20.4159 22.926L19.3874 15.9185L24.3933 11.4545C25.1395 10.7896 25.2054 9.64563 24.5405 8.89945ZM17.8393 14.9096C17.6153 15.1097 17.507 15.4089 17.5509 15.706L18.6222 23.2055L13.0048 19.3861C12.7019 19.1803 12.3041 19.1803 12.0013 19.3861L6.35075 23.1823L7.44978 15.7025C7.49246 15.4066 7.38418 15.109 7.16138 14.9097L1.8046 10.0814L8.95412 9.09484C9.26716 9.05168 9.534 8.84625 9.65584 8.55471L12.511 1.78555C12.5142 1.78953 12.5166 1.79408 12.5182 1.79894L15.3439 8.55116C15.4657 8.84269 15.7326 9.04812 16.0456 9.09128L23.204 10.1216L17.8393 14.9096Z" fill="white" />
  <path d="M24.5405 8.89945L23.0472 10.23L23.0473 10.23L24.5405 8.89945ZM23.4389 8.31099H21.4389V10.0519L23.1631 10.2919L23.4389 8.31099ZM23.4389 8.3101H25.4389V6.56739L23.7126 6.32891L23.4389 8.3101ZM16.7947 7.39228L14.9497 8.16439L15.3904 9.21728L16.521 9.37347L16.7947 7.39228ZM14.1654 1.10968L12.3198 1.8802L12.3205 1.88179L14.1654 1.10968ZM11.8052 0.139754L11.0347 -1.70585L11.0346 -1.70583L11.8052 0.139754ZM10.8353 1.10968L12.6803 1.88179L12.681 1.8801L10.8353 1.10968ZM8.20605 7.39228L8.47973 9.37347L9.61037 9.21728L10.051 8.16439L8.20605 7.39228ZM1.56187 8.3101L1.28819 6.32891L1.28613 6.3292L1.56187 8.3101ZM0.0189678 10.3521L-1.96193 10.6278L-1.96193 10.6278L0.0189678 10.3521ZM0.607429 11.4537L1.93853 9.96095L1.93794 9.96042L0.607429 11.4537ZM5.61335 15.9176L7.59213 16.2082L7.74868 15.1421L6.94445 14.4249L5.61335 15.9176ZM4.58479 22.9224L6.56069 23.232L6.56217 23.2225L6.56357 23.213L4.58479 22.9224ZM5.41331 24.7196L6.49078 23.0347L6.47606 23.0253L6.46117 23.0161L5.41331 24.7196ZM7.38548 24.683L6.26081 23.0292L6.25346 23.0342L6.24615 23.0393L7.38548 24.683ZM12.5003 21.2047L13.6258 19.5514L12.5009 18.7856L11.3756 19.5509L12.5003 21.2047ZM17.6152 24.6866L16.4897 26.3399L16.492 26.3414L17.6152 24.6866ZM20.1239 24.2065L21.7787 25.3297L21.7788 25.3296L20.1239 24.2065ZM20.4159 22.926L18.4371 23.2164L18.4377 23.2208L20.4159 22.926ZM19.3874 15.9185L18.0563 14.4257L17.2521 15.1429L17.4086 16.2089L19.3874 15.9185ZM24.3933 11.4545L23.0628 9.96128L23.0622 9.96178L24.3933 11.4545ZM17.8393 14.9096L16.5075 13.4175L16.5067 13.4182L17.8393 14.9096ZM17.5509 15.706L19.5308 15.4232L19.5294 15.4137L17.5509 15.706ZM18.6222 23.2055L17.4977 24.8594L21.2425 27.4056L20.6021 22.9227L18.6222 23.2055ZM13.0048 19.3861L14.1293 17.7322L14.1289 17.7319L13.0048 19.3861ZM12.0013 19.3861L13.1166 21.0463L13.1254 21.0403L12.0013 19.3861ZM6.35075 23.1823L4.37199 22.8915L3.71507 27.3624L7.46607 24.8424L6.35075 23.1823ZM7.44978 15.7025L9.42854 15.9932L9.42928 15.988L7.44978 15.7025ZM7.16138 14.9097L5.82234 16.3953L5.82792 16.4003L7.16138 14.9097ZM1.8046 10.0814L1.53121 8.10017L-2.72859 8.68797L0.465569 11.567L1.8046 10.0814ZM8.95412 9.09484L8.68097 7.11358L8.68073 7.11361L8.95412 9.09484ZM9.65584 8.55471L7.81304 7.77744L7.8105 7.78353L9.65584 8.55471ZM12.511 1.78555L14.0607 0.521298L11.9598 -2.05398L10.6682 1.00829L12.511 1.78555ZM12.5182 1.79894L10.6088 2.39432L10.6369 2.48419L10.6732 2.57103L12.5182 1.79894ZM15.3439 8.55116L17.1892 7.77997L17.1888 7.77907L15.3439 8.55116ZM16.0456 9.09128L16.3305 7.11164L16.3188 7.11003L16.0456 9.09128ZM23.204 10.1216L24.5358 11.6137L27.7402 8.75383L23.489 8.14197L23.204 10.1216ZM26.0337 7.56894C25.4322 6.89382 24.6101 6.45475 23.7146 6.33009L23.1631 10.2919C23.1184 10.2857 23.0773 10.2637 23.0472 10.23L26.0337 7.56894ZM25.4389 8.31099V8.3101H21.4389V8.31099H25.4389ZM23.7126 6.32891L17.0684 5.41109L16.521 9.37347L23.1652 10.2913L23.7126 6.32891ZM18.6396 6.62017L16.0104 0.337565L12.3205 1.88179L14.9497 8.16439L18.6396 6.62017ZM16.011 0.339156C15.2016 -1.59972 12.9736 -2.51536 11.0347 -1.70585L12.5758 1.98535C12.476 2.02702 12.3614 1.97988 12.3198 1.8802L16.011 0.339156ZM11.0346 -1.70583C10.1105 -1.31997 9.37557 -0.585244 8.98967 0.339257L12.681 1.8801C12.6611 1.92784 12.6232 1.96556 12.5759 1.98533L11.0346 -1.70583ZM8.99037 0.337565L6.3611 6.62017L10.051 8.16439L12.6803 1.88179L8.99037 0.337565ZM7.93238 5.41109L1.28819 6.32891L1.83555 10.2913L8.47973 9.37347L7.93238 5.41109ZM1.28613 6.3292C-0.797882 6.61928 -2.252 8.54395 -1.96193 10.6278L1.99987 10.0763C2.01435 10.1804 1.9418 10.2765 1.8376 10.291L1.28613 6.3292ZM-1.96193 10.6278C-1.83727 11.5233 -1.3982 12.3453 -0.723082 12.9469L1.93794 9.96042C1.97171 9.99051 1.99365 10.0316 1.99987 10.0763L-1.96193 10.6278ZM-0.723672 12.9464L4.28225 17.4103L6.94445 14.4249L1.93853 9.96095L-0.723672 12.9464ZM3.63457 15.6271L2.60601 22.6319L6.56357 23.213L7.59213 16.2082L3.63457 15.6271ZM2.60888 22.6129C2.37265 24.1209 3.06525 25.6234 4.36545 26.4232L6.46117 23.0161C6.53485 23.0614 6.57407 23.1465 6.56069 23.232L2.60888 22.6129ZM4.33583 26.4046C5.62004 27.2258 7.27195 27.1952 8.52481 26.3268L6.24615 23.0393C6.31938 22.9885 6.41583 22.9868 6.49078 23.0347L4.33583 26.4046ZM8.51016 26.3368L13.625 22.8585L11.3756 19.5509L6.26081 23.0292L8.51016 26.3368ZM11.3749 22.8579L16.4897 26.3399L18.7406 23.0333L13.6258 19.5514L11.3749 22.8579ZM16.492 26.3414C18.2313 27.5219 20.5982 27.0689 21.7787 25.3297L18.4691 23.0832C18.5292 22.9947 18.6497 22.9716 18.7383 23.0317L16.492 26.3414ZM21.7788 25.3296C22.3151 24.5393 22.5349 23.5762 22.3941 22.6312L18.4377 23.2208C18.4305 23.1725 18.4418 23.1234 18.469 23.0833L21.7788 25.3296ZM22.3947 22.6356L21.3662 15.628L17.4086 16.2089L18.4371 23.2164L22.3947 22.6356ZM20.7185 17.4112L25.7244 12.9472L23.0622 9.96178L18.0563 14.4257L20.7185 17.4112ZM25.7238 12.9477C27.2947 11.548 27.4335 9.13974 26.0336 7.56886L23.0473 10.23C22.9773 10.1515 22.9843 10.0312 23.0628 9.96128L25.7238 12.9477ZM16.5067 13.4182C15.7811 14.0665 15.4302 15.036 15.5723 15.9983L19.5294 15.4137C19.5838 15.7819 19.4495 16.1529 19.1718 16.401L16.5067 13.4182ZM15.571 15.9889L16.6423 23.4883L20.6021 22.9227L19.5308 15.4232L15.571 15.9889ZM19.7467 21.5516L14.1293 17.7322L11.8802 21.0401L17.4977 24.8594L19.7467 21.5516ZM14.1289 17.7319C13.1476 17.0651 11.8585 17.0651 10.8771 17.7319L13.1254 21.0403C12.7497 21.2956 12.2563 21.2956 11.8806 21.0403L14.1289 17.7319ZM10.8859 17.726L5.23543 21.5221L7.46607 24.8424L13.1166 21.0463L10.8859 17.726ZM8.3295 23.473L9.42853 15.9932L5.47102 15.4117L4.37199 22.8915L8.3295 23.473ZM9.42928 15.988C9.56763 15.0291 9.21666 14.0648 8.49483 13.4191L5.82792 16.4003C5.55169 16.1532 5.41729 15.7841 5.47027 15.4169L9.42928 15.988ZM8.50041 13.4241L3.14362 8.59579L0.465569 11.567L5.82235 16.3953L8.50041 13.4241ZM2.07798 12.0626L9.22751 11.0761L8.68073 7.11361L1.53121 8.10017L2.07798 12.0626ZM9.22727 11.0761C10.2417 10.9362 11.1064 10.2705 11.5012 9.32589L7.8105 7.78353C7.96158 7.42202 8.29257 7.16712 8.68097 7.11358L9.22727 11.0761ZM11.4986 9.33198L14.3538 2.56282L10.6682 1.00829L7.81305 7.77745L11.4986 9.33198ZM10.9613 3.0498C10.7977 2.84929 10.6808 2.62514 10.6088 2.39432L14.4275 1.20356C14.3525 0.96302 14.2308 0.729768 14.0607 0.521298L10.9613 3.0498ZM10.6732 2.57103L13.4989 9.32324L17.1888 7.77907L14.3631 1.02685L10.6732 2.57103ZM13.4985 9.32234C13.8933 10.267 14.7581 10.9327 15.7724 11.0725L16.3188 7.11003C16.7071 7.16357 17.0381 7.41838 17.1892 7.77997L13.4985 9.32234ZM15.7607 11.0709L22.9191 12.1012L23.489 8.14197L16.3305 7.11168L15.7607 11.0709ZM21.8723 8.62943L16.5075 13.4175L19.171 16.4018L24.5358 11.6137L21.8723 8.62943Z" fill="white" mask="url(#path-1-inside-1)" />
</svg>